<svg xmlns="http://www.w3.org/2000/svg"  viewBox="0 0 64 64" width="64px" height="64px"><path fill="#cda1a7" d="M36.32,13.829c-7.002-1.044-15.09,4.545-16.985,9.926l6.957,10.179l9.306,1.223 C32.261,28.945,32.628,22.759,36.32,13.829"/><path fill="#8d6c9f" d="M35.599,36.157c-0.043,0-0.087-0.003-0.13-0.009l-9.307-1.223 c-0.282-0.037-0.535-0.192-0.695-0.427l-6.957-10.18c-0.181-0.264-0.224-0.597-0.118-0.896 c2.013-5.714,10.526-11.701,18.076-10.583c0.305,0.046,0.571,0.229,0.723,0.496s0.172,0.591,0.054,0.875 c-3.681,8.905-3.896,14.646-0.765,20.473c0.178,0.331,0.155,0.733-0.058,1.042C36.233,35.998,35.925,36.157,35.599,36.157z M26.865,33.001l7.024,0.923c-2.391-5.522-2.076-11.302,1.001-19.217c-5.947-0.185-12.523,4.411-14.434,8.918L26.865,33.001z"/><path fill="#dbb2ba" d="M62.515,37.994l-4.163-1.944c-0.578-0.399-1.057-0.948-1.473-1.557 c-2.682-3.92-4.765-5.647-8.324-5.07c-4.57,0.741-4.864,3.745-8.68,3.235l-14.779-1.875l-12.483,5.906 C5.721,39.61,1.001,53.998,1.001,53.998l7.659-2.073c0.967-0.275,1.963-0.449,2.956-0.535 c21.485-1.861,27.208-9.206,29.974-10.361c2.761-1.15,4.476-0.988,8.664-0.988c2.222,0,11.762,0.022,11.762,0.022 C63.02,40.064,63.374,38.588,62.515,37.994z"/><path fill="#c4939c" d="M6.415,48.661c-0.471-2.711,0.599-6.052,1.97-8.624C3.863,45.132,1,54,1,54l6.71-1.816 C7.092,51.104,6.636,49.934,6.415,48.661z"/><path fill="#8d6c9f" d="M1,55c-0.27,0-0.532-0.109-0.724-0.31c-0.253-0.266-0.341-0.648-0.228-0.998 c0.119-0.37,2.98-9.126,7.588-14.319c0.336-0.379,0.902-0.445,1.319-0.157c0.416,0.29,0.55,0.845,0.312,1.292 C7.73,43.39,7.033,46.374,7.4,48.49l0,0c0.188,1.085,0.584,2.16,1.178,3.196c0.153,0.27,0.174,0.594,0.056,0.88 c-0.119,0.286-0.363,0.502-0.662,0.582l-6.71,1.816C1.175,54.988,1.087,55,1,55z M5.335,46.413 c-1.232,2.335-2.173,4.616-2.746,6.121l3.673-0.995c-0.395-0.884-0.673-1.791-0.832-2.707l0,0 C5.291,48.034,5.271,47.218,5.335,46.413z"/><path fill="#72caaf" d="M62.515,36.962l-4.163-1.944c-0.578-0.399-1.057-0.948-1.473-1.557 c-2.682-3.92-4.765-5.647-8.324-5.07c-4.57,0.741-4.864,3.745-8.68,3.235l-0.807-0.103c-0.022,0.424-0.057,0.842-0.057,1.271 c0,2.808,0.478,5.482,1.318,7.946c0.488-0.334,0.9-0.59,1.26-0.741c2.762-1.151,4.477-0.99,8.665-0.99 c2.222,0,11.762,0.022,11.762,0.022C63.02,39.032,63.374,37.556,62.515,36.962z"/><path fill="#f9dd8f" d="M62.499,38.334l-4.297-1.688c-0.294-0.171-0.563-0.375-0.812-0.599 c-0.299,1.436-0.802,2.796-1.451,4.074c3.064,0.005,6.046,0.011,6.046,0.011C63.02,40.131,63.386,38.849,62.499,38.334z"/><path fill="#8d6c9f" d="M51.087,31.78c0.787-0.054,2.045,1.411,2.045,1.411s-1.102,1.613-1.889,1.658 c-0.787,0.054-2.045-1.411-2.045-1.411S50.3,31.825,51.087,31.78z"/><path fill="#8d6c9f" d="M56,40.01c-0.094,0-0.189-0.014-0.285-0.041c-0.529-0.158-0.831-0.715-0.674-1.244l1-3.363 c0.158-0.529,0.707-0.826,1.244-0.674c0.529,0.158,0.831,0.715,0.674,1.244l-1,3.363C56.829,39.729,56.432,40.01,56,40.01z"/><path fill="#dbb2ba" d="M11.021,43.967c-3.597-4.068-5.832-9.756-5.832-16.051c0-9.209,4.784-17.121,11.618-20.557 C17.274,18.415,22.528,26.998,32,36.709L11.021,43.967z"/><path fill="#c4939c" d="M27,31c6.533,7.452,8.063,7.638-8.084,19.459c10.75-1.844,16.323-5.159,19.529-7.367 c-1.097-2.934-1.723-6.178-1.723-9.606c0-0.412,0.034-0.814,0.051-1.221L27,31z"/><path fill="#8d6c9f" d="M11.078,44.967c-0.274,0-0.548-0.112-0.746-0.334C6.37,40.197,4.188,34.26,4.188,27.916 c0-9.316,4.823-17.736,12.287-21.452c0.304-0.148,0.661-0.137,0.953,0.034c0.292,0.172,0.477,0.48,0.491,0.818 c0.349,8.17,3.387,15.277,9.849,23.044c0.354,0.425,0.296,1.055-0.129,1.408c-0.426,0.354-1.057,0.294-1.408-0.129 c-6.341-7.621-9.532-14.67-10.208-22.642c-6.021,3.684-9.835,10.933-9.835,18.918c0,5.853,2.001,11.315,5.636,15.385 c0.367,0.412,0.332,1.044-0.08,1.412C11.554,44.883,11.315,44.967,11.078,44.967z"/><path fill="#8d6c9f" d="M18.917,51.371c-0.312,0-0.618-0.145-0.813-0.417c-0.322-0.449-0.219-1.074,0.229-1.396 c2.487-1.783,4.246-3.073,5.701-4.182c0.441-0.337,1.067-0.249,1.401,0.188c0.335,0.439,0.25,1.067-0.188,1.401 c-1.472,1.122-3.245,2.423-5.748,4.217C19.322,51.311,19.118,51.371,18.917,51.371z"/><path fill="#8d6c9f" d="M27.41,44.494c-0.282,0-0.562-0.119-0.76-0.351c-0.359-0.42-0.31-1.051,0.11-1.409 c0.58-0.497,1.094-0.96,1.544-1.396c0.398-0.384,1.031-0.371,1.414,0.023c0.384,0.397,0.373,1.03-0.023,1.414 c-0.478,0.461-1.027,0.959-1.636,1.478C27.871,44.415,27.641,44.494,27.41,44.494z"/><path fill="#8d6c9f" d="M38.445,43.657c-0.404,0-0.785-0.247-0.936-0.647c-1.194-3.172-1.8-6.521-1.8-9.958 c0-0.103,0.002-0.205,0.005-0.307l-6.271-0.533c2.435,2.662,4,4.474,2.791,7.203c-0.223,0.504-0.812,0.735-1.319,0.509 c-0.505-0.224-0.732-0.814-0.509-1.319c0.678-1.529-0.092-2.479-2.625-5.246c-0.471-0.515-0.983-1.075-1.532-1.696 c-0.271-0.307-0.327-0.746-0.144-1.111c0.184-0.366,0.574-0.589,0.979-0.547l9.762,0.83c0.534,0.045,0.938,0.504,0.914,1.039 l-0.021,0.412c-0.015,0.254-0.029,0.509-0.029,0.767c0,3.194,0.562,6.308,1.671,9.253c0.195,0.517-0.066,1.094-0.583,1.288 C38.682,43.637,38.562,43.657,38.445,43.657z"/><path fill="#fff8ee" d="M39.784,33.326c0-0.411,0.047-0.814,0.076-1.218l-3.883-0.325 c-0.049,0.511-0.102,1.022-0.102,1.544c0,3.246,1.004,6.306,2.741,9.046c1.229-0.551,2.231-1.037,3.072-1.419 C40.464,38.59,39.784,36.021,39.784,33.326z"/><path fill="#8d6c9f" d="M1.001,54.998c-0.269,0-0.529-0.108-0.721-0.307c-0.255-0.265-0.344-0.648-0.231-0.998 c0.112-0.352,2.807-8.681,7.168-14.172C7.56,39.09,8.19,39.018,8.622,39.36c0.433,0.344,0.505,0.973,0.161,1.405 c-2.961,3.728-5.172,9.022-6.197,11.755l5.807-1.612c0.985-0.287,2.044-0.483,3.136-0.58 c16.972-1.508,24.011-6.63,27.395-9.091c0.943-0.687,1.625-1.183,2.274-1.46c2.633-1.124,4.433-1.115,7.698-1.099l1.359,0.004 c2.186,0,11.441,0.021,11.756,0.022c-0.034-0.006-0.004-0.084-0.013-0.175c-0.005-0.051-0.018-0.082-0.031-0.102l-4.046-1.938 c-0.052-0.025-0.101-0.054-0.147-0.087c-0.622-0.441-1.187-1.049-1.727-1.858c-2.721-4.078-4.5-5.234-7.328-4.769 c-1.908,0.317-2.964,1.076-3.985,1.81c-1.264,0.907-2.573,1.838-4.995,1.514l-12.867-1.676 c-0.548-0.071-0.934-0.572-0.862-1.12c0.071-0.548,0.566-0.939,1.12-0.862l12.874,1.676c1.647,0.226,2.407-0.324,3.563-1.155 c1.094-0.786,2.456-1.764,4.824-2.158c4.183-0.688,6.589,1.538,9.32,5.632c0.381,0.571,0.76,0.994,1.156,1.29l4.079,1.953 c0.052,0.025,0.101,0.054,0.146,0.087c0.778,0.552,1.099,1.56,0.797,2.509c-0.277,0.868-1.012,1.43-1.873,1.43 c-0.003,0-9.539-0.022-11.762-0.022l-1.369-0.004c-3.197-0.017-4.653-0.023-6.902,0.938c-0.441,0.188-1.078,0.652-1.885,1.238 c-3.528,2.567-10.87,7.908-28.394,9.466c-0.962,0.085-1.893,0.257-2.765,0.512l-7.672,2.13 C1.18,54.986,1.09,54.998,1.001,54.998z"/><path fill="#8d6c9f" d="M38.541,43.574c-0.331,0-0.655-0.164-0.846-0.465c-1.921-3.029-2.896-6.253-2.896-9.58 c0-0.534,0.049-1.043,0.096-1.534l0.011-0.105c0.052-0.549,0.534-0.967,1.09-0.9c0.55,0.052,0.953,0.54,0.9,1.09l-0.01,0.106 c-0.045,0.466-0.087,0.905-0.087,1.344c0,2.942,0.869,5.805,2.585,8.51c0.296,0.466,0.157,1.084-0.31,1.38 C38.909,43.524,38.725,43.574,38.541,43.574z"/><path fill="#8d6c9f" d="M42.001,41.131c-0.362,0-0.711-0.196-0.889-0.54c-0.174-0.336-0.345-0.654-0.509-0.962 c-1.018-1.901-1.896-3.543-1.896-6.102c0-0.325,0.026-0.646,0.054-0.966l0.026-0.324c0.04-0.551,0.528-0.968,1.069-0.925 c0.551,0.04,0.965,0.519,0.925,1.069l-0.028,0.35c-0.022,0.264-0.046,0.527-0.046,0.796c0,2.058,0.695,3.358,1.658,5.158 c0.169,0.315,0.344,0.642,0.521,0.985c0.254,0.49,0.062,1.094-0.428,1.348C42.312,41.095,42.155,41.131,42.001,41.131z"/><path fill="#cda1a7" d="M7.432,33.146c0-8.22,4.437-15.234,10.696-18.079c-0.684-2.458-1.092-5.009-1.208-7.71 C10.019,10.793,5.188,18.705,5.188,27.915c0,4.901,1.38,9.421,3.699,13.106C7.959,38.613,7.432,35.953,7.432,33.146z"/><g><path fill="#8d6c9f" d="M8.518,32.475c-0.031,0-0.063-0.001-0.095-0.005l-1.991-0.211 C5.881,32.2,5.478,31.654,5.53,31.037c0.052-0.616,0.553-1.082,1.089-1.01l1.991,0.211c0.551,0.058,0.954,0.604,0.901,1.221 C9.463,32.04,9.027,32.475,8.518,32.475z"/><path fill="#8d6c9f" d="M9.592,27.394c-0.122,0-0.247-0.025-0.367-0.079l-1.86-0.823 c-0.514-0.227-0.766-0.878-0.562-1.454c0.201-0.576,0.785-0.859,1.297-0.631l1.86,0.823 c0.514,0.227,0.766,0.878,0.562,1.454C10.367,27.126,9.99,27.394,9.592,27.394z"/><path fill="#8d6c9f" d="M11.898,22.862c-0.214,0-0.43-0.077-0.612-0.235l-1.579-1.375 c-0.437-0.38-0.516-1.085-0.177-1.573c0.34-0.488,0.966-0.578,1.403-0.198l1.579,1.375c0.437,0.38,0.516,1.085,0.177,1.573 C12.492,22.713,12.197,22.862,11.898,22.862z"/><path fill="#8d6c9f" d="M15.251,19.247c-0.312,0-0.618-0.163-0.813-0.469l-1.164-1.822 c-0.322-0.503-0.219-1.203,0.23-1.563c0.447-0.362,1.073-0.244,1.395,0.258l1.164,1.822c0.322,0.503,0.219,1.203-0.23,1.563 C15.656,19.179,15.452,19.247,15.251,19.247z"/></g><g><path fill="#8d6c9f" d="M8.888,42.021c-0.332,0-0.657-0.165-0.848-0.468c-2.52-4.007-3.852-8.723-3.852-13.639 c0-9.317,4.823-17.737,12.287-21.453c0.304-0.148,0.661-0.137,0.953,0.034c0.292,0.172,0.477,0.48,0.491,0.818 c0.112,2.606,0.496,5.055,1.172,7.484c0.148,0.532-0.162,1.084-0.694,1.231c-0.533,0.15-1.084-0.162-1.231-0.694 c-0.579-2.076-0.955-4.164-1.142-6.34c-6.021,3.683-9.836,10.933-9.836,18.919c0,4.538,1.226,8.887,3.545,12.574 c0.294,0.468,0.153,1.085-0.314,1.379C9.254,41.972,9.069,42.021,8.888,42.021z"/></g></svg>