<svg xmlns="http://www.w3.org/2000/svg"  viewBox="0 0 64 64" width="64px" height="64px"><g data-name="Fill Outline"><circle cx="19" cy="19" r="16" fill="#fcea42"/><path fill="#fdc741" d="M35,19A16,16,0,1,1,6.57,8.92,16,16,0,0,0,21,18a15.971,15.971,0,0,0,12.43-5.92A15.9,15.9,0,0,1,35,19Z"/><circle cx="19" cy="19" r="12" fill="#fdc741"/><path fill="#efad1b" d="M19,7A12,12,0,1,0,31,19,12,12,0,0,0,19,7Zm2,11A15.958,15.958,0,0,1,9.71,13.34a11.971,11.971,0,0,1,18.75,2.8A16.006,16.006,0,0,1,21,18Z"/><circle cx="49" cy="17" r="12" fill="#fffa48"/><path fill="#fcea42" d="M61,17A12,12,0,1,1,44.17,6.01a12.01,12.01,0,0,0,16.66,8.98A12.027,12.027,0,0,1,61,17Z"/><circle cx="49" cy="17" r="8" fill="#fcea42"/><path fill="#fdc741" d="M49,9a8,8,0,1,0,8,8A8,8,0,0,0,49,9Zm-2.62,2.16A8.725,8.725,0,0,1,48,11a7.994,7.994,0,0,1,7.4,4.97A11.953,11.953,0,0,1,46.38,11.16Z"/><g data-name="&lt;Group&gt;"><circle cx="41" cy="34" r="20" fill="#f7f754" data-name="&lt;Ellipse&gt;"/><path fill="#fcea42" d="M58.73,43.23A19.992,19.992,0,1,1,31.77,16.27,19.787,19.787,0,0,0,29.5,25.5a20,20,0,0,0,20,20A19.787,19.787,0,0,0,58.73,43.23Z" data-name="&lt;Path&gt;"/><circle cx="41" cy="34" r="16" fill="#fcea42" data-name="&lt;Ellipse&gt;"/><path fill="#fdc741" d="M41,18A16,16,0,1,0,57,34,16,16,0,0,0,41,18ZM51.82,45.35a19.648,19.648,0,0,1-2.32.15,20,20,0,0,1-20-20,19.647,19.647,0,0,1,.15-2.32A15.989,15.989,0,0,1,51.82,45.35Z" data-name="&lt;Compound Path&gt;"/><path fill="#f7f754" d="M41,18a16.085,16.085,0,0,0-2,.138v4.157A7,7,0,0,0,41,36a3,3,0,1,1-3,3H34a7.01,7.01,0,0,0,5,6.705v4.157a14.543,14.543,0,0,0,4,0V45.705A7,7,0,0,0,41,32a3,3,0,1,1,3-3h4a7.01,7.01,0,0,0-5-6.705V18.138A16.085,16.085,0,0,0,41,18Z" data-name="&lt;Path&gt;"/><g data-name="&lt;Group&gt;"><path fill="#fcea42" d="M43,21.153V18.138a14.543,14.543,0,0,0-4,0v2.387A15.978,15.978,0,0,1,43,21.153Z" data-name="&lt;Path&gt;"/><path fill="#fcea42" d="M34.774,39H34a7.01,7.01,0,0,0,5,6.705v4.157a14.543,14.543,0,0,0,4,0V45.705a6.955,6.955,0,0,0,1.722-.8A19.953,19.953,0,0,1,34.774,39Z" data-name="&lt;Path&gt;"/></g></g><path fill="#f9dbaf" d="M50.249,54.364a3,3,0,0,0-3.679-2.331L38.776,54a2,2,0,0,1-1.588-.267l-2.571-1.689c.032-.033.07-.058.1-.093a3,3,0,0,0-.389-4.338l-6.514-5.15a19.384,19.384,0,0,0-15.133-3.927L3,40.113v12.53l7.486-.781a16,16,0,0,1,9.268,1.829L31.98,60.281a6,6,0,0,0,4.317.536l11.578-2.925A3.115,3.115,0,0,0,50.249,54.364Z"/><path fill="#edb88e" d="M27,44.573a2,2,0,0,0-1.7,2.394,11,11,0,0,0,3.918,6.254l1.235.976a3.141,3.141,0,0,0,4.2-.171,2.96,2.96,0,0,0,.743-1.469l-.778-.511c.032-.033.07-.058.1-.093a2.989,2.989,0,0,0,.568-.981,2.972,2.972,0,0,0-.958-1.357l-6.514-5.15Z"/><path fill="#f9dbaf" d="M24.992,40.609a19.383,19.383,0,0,1,2.823,1.856l6.514,5.15a3,3,0,0,1,.389,4.338,3.114,3.114,0,0,1-4.244.264l-5.322-4.207Z"/><path fill="#edb88e" d="M47.88,57.89,36.3,60.82a6.057,6.057,0,0,1-4.32-.54L19.75,53.69a15.937,15.937,0,0,0-9.26-1.83L3,52.64V40.11l9.56-1.55-.12.73a9.939,9.939,0,0,0,6.02,10.86,14.19,14.19,0,0,1,1.63.76L32.32,57.5a6.037,6.037,0,0,0,4.31.54l11.58-2.93a3.271,3.271,0,0,0,1.88-1.29,3.077,3.077,0,0,1,.16.54A3.12,3.12,0,0,1,47.88,57.89Z"/><g data-name="Outline copy"><path fill="#023e8a" d="M60.908,32.021a1,1,0,0,0-.937,1.06c.02.31.028.609.028.919A19.034,19.034,0,0,1,48.89,51.281a3.96,3.96,0,0,0-2.564-.22l-7.791,1.971a1,1,0,0,1-.8-.138l-1.714-1.123a3.926,3.926,0,0,0,.42-1.406A16.694,16.694,0,0,0,41,51a17,17,0,0,0,2.123-33.862,1.006,1.006,0,0,0-1.123,1v4.156a1,1,0,0,0,.714.958A6.05,6.05,0,0,1,46.914,28H44.873A4,4,0,1,0,41,33a6,6,0,0,1,1.714,11.747,1,1,0,0,0-.714.958v3.262a14.551,14.551,0,0,1-2-.018V45.71a1,1,0,0,0-.712-.958A6.067,6.067,0,0,1,35.086,40h2.041A4,4,0,1,0,41,35a6,6,0,0,1-1.712-11.752A1,1,0,0,0,40,22.29V18.13a1,1,0,0,0-.338-.749,1.018,1.018,0,0,0-.784-.243,16.978,16.978,0,0,0-8.3,3.432A1,1,0,1,0,31.8,22.151,15.011,15.011,0,0,1,38,19.306v2.279A8,8,0,0,0,41,37a2,2,0,1,1-2,2,1,1,0,0,0-1-1H34a1,1,0,0,0-1,1,8.07,8.07,0,0,0,5,7.415v2.25a14.98,14.98,0,0,1-2-.557,4,4,0,0,0-1.053-1.277l-6.515-5.15c-.17-.135-.355-.253-.53-.382-.005-.011,0-.022-.01-.033A14.948,14.948,0,0,1,29.15,24.8a1,1,0,0,0-1.58-1.225,16.911,16.911,0,0,0-2.654,15.883,20.188,20.188,0,0,0-2.367-1.012A18.988,18.988,0,0,1,59.41,29.315a1,1,0,0,0,1.939-.49,20.96,20.96,0,0,0-1.677-4.411A13,13,0,0,0,58.576,8.2,1,1,0,1,0,57.1,9.557a11,11,0,0,1,1.447,12.9,20.852,20.852,0,0,0-1.344-1.8A8.977,8.977,0,0,0,40.967,13a21.111,21.111,0,0,0-2.255.129A11.009,11.009,0,0,1,54.205,7.3a1,1,0,0,0,.949-1.761,13,13,0,0,0-18.66,7.96c-.441.1-.876.212-1.306.337A17.035,17.035,0,0,0,19,2,16.813,16.813,0,0,0,8.576,5.571,1,1,0,0,0,9.8,7.149,14.827,14.827,0,0,1,19,4,15.032,15.032,0,0,1,33.3,14.483q-.941.373-1.834.831a13.041,13.041,0,0,0-4.016-6.195,1,1,0,1,0-1.3,1.521,11.034,11.034,0,0,1,3.52,5.7,21.142,21.142,0,0,0-5.716,5.435A.985.985,0,0,0,23,21a1,1,0,0,0-1,1,2,2,0,0,1-2,2H18a2,2,0,0,1-2-2h3a1,1,0,0,0,0-2H16V18h3a1,1,0,0,0,0-2H16a2,2,0,0,1,2-2h2a2,2,0,0,1,2,2,1,1,0,0,0,2,0,4,4,0,0,0-4-4H18a4,4,0,0,0-4,4H13a1,1,0,0,0,0,2h1v2H13a1,1,0,0,0,0,2h1a4,4,0,0,0,4,4h2a3.951,3.951,0,0,0,1.785-.439A20.8,20.8,0,0,0,20.407,29.9,11.231,11.231,0,0,1,19,30,11,11,0,0,1,19,8a10.71,10.71,0,0,1,4,.759A1,1,0,1,0,23.741,6.9,12.72,12.72,0,0,0,19,6a13,13,0,0,0,0,26c.371,0,.739-.018,1.1-.048-.064.656-.1,1.321-.1,1.993-.33.022-.653.055-1,.055A15.016,15.016,0,0,1,4,19,14.827,14.827,0,0,1,7.149,9.8,1,1,0,0,0,5.571,8.576,16.813,16.813,0,0,0,2,19,17.019,17.019,0,0,0,19,36c.384,0,.74-.036,1.1-.06.061.628.143,1.257.261,1.888a20.519,20.519,0,0,0-7.845-.277L2.84,39.126A1,1,0,0,0,3.16,41.1l9.682-1.575a18.384,18.384,0,0,1,14.353,3.724l6.515,5.15a2,2,0,0,1,.258,2.894,2.116,2.116,0,0,1-2.872.14l-5.322-4.207a1,1,0,1,0-1.24,1.568L29.854,53a4.274,4.274,0,0,0,2.65.933,3.969,3.969,0,0,0,2.173-.654l1.963,1.286a3.011,3.011,0,0,0,2.385.4L46.815,53a2,2,0,0,1,2.453,1.551,2.131,2.131,0,0,1-1.644,2.369L36.061,59.85a5.049,5.049,0,0,1-3.605-.449l-3.8-2.05a1,1,0,1,0-.949,1.76l3.8,2.051A7.015,7.015,0,0,0,34.834,62a7.194,7.194,0,0,0,1.711-.208l11.57-2.931a4.1,4.1,0,0,0,3.115-4.7,4.013,4.013,0,0,0-.63-1.5A21.034,21.034,0,0,0,62,34c0-.351-.011-.691-.032-1.043A1.008,1.008,0,0,0,60.908,32.021ZM44,46.412A8,8,0,0,0,41,31a2,2,0,1,1,2-2,1,1,0,0,0,1,1h4a1,1,0,0,0,1-1,8.057,8.057,0,0,0-5-7.412V19.306A15,15,0,0,1,44,48.7ZM49,10a6.963,6.963,0,0,1,6.693,9.006,20.946,20.946,0,0,0-12.506-5.88A6.934,6.934,0,0,1,49,10Z"/><path fill="#023e8a" d="M52.908,39.2a12.929,12.929,0,0,0,.009-10.38,1,1,0,1,0-1.834.8,10.921,10.921,0,0,1-.007,8.776,1,1,0,0,0,.515,1.317.989.989,0,0,0,.4.084A1,1,0,0,0,52.908,39.2Z"/><path fill="#023e8a" d="M30.409,28.287a1,1,0,0,0-1.317.515,12.929,12.929,0,0,0-.009,10.38,1,1,0,0,0,1.834-.8,10.921,10.921,0,0,1,.007-8.776A1,1,0,0,0,30.409,28.287Z"/><path fill="#023e8a" d="M25.134,55.449l-4.908-2.639a16.841,16.841,0,0,0-9.839-1.944l-7.49.778A1,1,0,1,0,3.1,53.634l7.492-.779a14.85,14.85,0,0,1,8.681,1.717l4.91,2.64a1,1,0,1,0,.947-1.762Z"/></g></g></svg>