<svg xmlns="http://www.w3.org/2000/svg"  viewBox="0 0 128 128" width="64px" height="64px"><circle cx="64" cy="64" r="60" fill="#fff"/><path fill="#71c2ff" d="M90.01,62.49L66.59,22.33c-0.54-0.92-1.52-1.49-2.59-1.49s-2.05,0.57-2.59,1.49L37.99,62.49 c-0.54,0.93-0.54,2.09,0,3.02l23.42,40.15c0.54,0.92,1.52,1.49,2.59,1.49s2.05-0.57,2.59-1.49l23.42-40.15 C90.56,64.58,90.56,63.42,90.01,62.49z M64,29.8l19.18,32.88L64,73.63L44.82,62.68L64,29.8z M64,98.2L48.55,71.72l13.96,7.98 c0.46,0.26,0.97,0.4,1.49,0.4s1.03-0.13,1.49-0.4l13.96-7.98L64,98.2z"/><path fill="#444b54" d="M64,127C29.26,127,1,98.74,1,64S29.26,1,64,1s63,28.26,63,63S98.74,127,64,127z M64,7C32.57,7,7,32.57,7,64 s25.57,57,57,57s57-25.57,57-57S95.43,7,64,7z"/></svg>