<svg xmlns="http://www.w3.org/2000/svg"  viewBox="0 0 512 512" width="64px" height="64px"><g data-name="filled outline"><polygon fill="#cbcbcb" points="408 488 448 488 448 464 424 448 408 328 368 352 384 470.893 408 488"/><path fill="#cbcbcb" d="M144,478.142l-1.373,1.029a44.141,44.141,0,0,1-57.7-4.1h0A44.145,44.145,0,0,1,72,443.857v-9.59A137.026,137.026,0,0,1,83.079,380.29L96,350.142l23,27.6a86.6,86.6,0,0,1,19.642,46.824Z"/><path fill="#cbcbcb" d="M329.382,113.641l-25.691-19.47a109.265,109.265,0,0,0-12.977-8.456l-6.323-3.509a109.243,109.243,0,0,0-56.7-13.659L192,69.754,213.189,95.76a109.244,109.244,0,0,0,42.559,31.788h0a109.252,109.252,0,0,0,45.828,8.39l9.136-.31Z"/><path fill="#eaeae8" d="M438.585,140.1l-16.394-18.736A74.262,74.262,0,0,0,366.3,96h0a74.258,74.258,0,0,0-25.031,4.361h0l-16.613-22.15a109.135,109.135,0,0,0-10.149-11.7L309.4,61.4a109.245,109.245,0,0,0-50.753-28.736L224,24h0l13.214,30.832a109.239,109.239,0,0,0,32.168,42.273h0a109.255,109.255,0,0,0,41.749,20.678l.466.116a74.214,74.214,0,0,0-12.468,15.553l-.546.91A74.26,74.26,0,0,0,288,172.57V208h0l-20,2a168.94,168.94,0,0,0-102.646,48.639l-6.73,6.729a163.864,163.864,0,0,0-46.35,92.693l-.2,1.41A169.14,169.14,0,0,0,131.6,465.683l2.687,4.835A33.988,33.988,0,0,0,164.006,488H296a51.776,51.776,0,0,0-28.622-46.311h0A15.994,15.994,0,0,0,260.223,440H240l25.816-7.745A88.5,88.5,0,0,0,328,360h0l24,112h0l16,16h40V464h0l-16-8h0l-16-88h0a106.582,106.582,0,0,0,40-83.225V200h0l21.3-21.3A28.268,28.268,0,0,0,438.585,140.1Z"/><path fill="#eaeae8" d="M156.44,422.66a39.492,39.492,0,0,0-17.42,37.17c.02.18.03.36.04.55l.52,17.27a33.507,33.507,0,0,1-5.29-7.13c-.87-1.56-1.76-3.17-2.69-4.84a167.229,167.229,0,0,1-8.35-17.27,55.445,55.445,0,0,1,24.31-39.07,8,8,0,0,1,8.88,13.32Z"/><path fill="#eaeae8" d="M428.83,187.17,416,200v8.43l-7.52,2.51A84.334,84.334,0,0,1,331.2,198.4a8,8,0,0,1,9.6-12.8,68.371,68.371,0,0,0,62.62,10.16l10.05-3.35Z"/><path fill="#eaeae8" d="M445.54,160.15A28.071,28.071,0,0,1,439.67,176H424a8.008,8.008,0,0,1-5.66-2.34l-8-8a8,8,0,0,1,11.32-11.32l5.65,5.66H444A7.809,7.809,0,0,1,445.54,160.15Z"/><circle cx="368" cy="136" r="15" fill="#f1746a"/><path fill="#ffb3b3" d="M445.54,160.15A28.071,28.071,0,0,1,439.67,176H424a8.008,8.008,0,0,1-5.66-2.34l-8-8a8,8,0,0,1,11.32-11.32l5.65,5.66H444A7.809,7.809,0,0,1,445.54,160.15Z"/><path fill="#cbcbcb" d="M267.38,441.69a16.007,16.007,0,0,0-7.16-1.69H240l15.952-4.788L256,416a72.083,72.083,0,0,0-71.547-72,8.235,8.235,0,0,0-8.44,7.537A8,8,0,0,0,184,360a56.063,56.063,0,0,1,56,56v16H216.272a8.18,8.18,0,0,0-8.255,7.471A8,8,0,0,0,216,448h61.09A51.721,51.721,0,0,0,267.38,441.69Z"/><path fill="#cbcbcb" d="M428.83,187.17,416,200v8.43l-7.52,2.51A84.334,84.334,0,0,1,331.2,198.4a8,8,0,0,1,9.6-12.8,68.371,68.371,0,0,0,62.62,10.16l10.05-3.35Z"/><path d="M152.97,259.711a173.048,173.048,0,0,0-47.321,89.513l-3.5-4.2a8,8,0,0,0-13.5,1.969L75.726,377.139A144.217,144.217,0,0,0,64,434.268v9.589a52.247,52.247,0,0,0,77.483,45.564A41.968,41.968,0,0,0,164.005,496H296a8,8,0,0,0,8-8,59.405,59.405,0,0,0-28.186-50.754,96.94,96.94,0,0,0,50.654-46.216l17.71,82.646a8,8,0,0,0,2.165,3.981l16,16A8,8,0,0,0,368,496h80a8,8,0,0,0,8-8V464a8,8,0,0,0-3.563-6.656l-20.986-13.991-15.5-116.247A114.69,114.69,0,0,0,424,284.775V203.313l18.956-18.955a36.362,36.362,0,0,0,1.649-49.529l-16.394-18.736a82.188,82.188,0,0,0-83.947-25.074l-13.2-17.608a117.627,117.627,0,0,0-10.892-12.557l-5.113-5.115A117.279,117.279,0,0,0,260.584,24.9L225.94,16.239a8,8,0,0,0-9.293,10.912l13.214,30.832c.362.845.743,1.68,1.124,2.515-1.19,0-2.38.013-3.566.054l-35.69,1.208A8,8,0,0,0,185.8,74.809l21.188,26a117.651,117.651,0,0,0,45.676,34.117,116.723,116.723,0,0,0,32.72,8.4A82.286,82.286,0,0,0,280,172.569V200.76l-12.793,1.28A177.41,177.41,0,0,0,159.7,252.982Zm-62.384,209.7A35.906,35.906,0,0,1,80,443.857v-9.589a128.318,128.318,0,0,1,10.432-50.827l7.779-18.15,4.606,5.527A175.615,175.615,0,0,0,124.5,469.361c.011.021.024.042.035.064.027.048.052.1.078.144l2.686,4.835c.6,1.08,1.259,2.113,1.943,3.125A36.414,36.414,0,0,1,90.586,469.414ZM416.07,449.058a8,8,0,0,0,3.492,5.6L440,468.281V480H416V464a8,8,0,0,0-4.422-7.155l-12.423-6.211-14.45-79.481a114.879,114.879,0,0,0,18.287-20.179ZM219.391,90.706l-11-13.5,19.57-.663a101.464,101.464,0,0,1,12.153.331,117.563,117.563,0,0,0,24.272,26.48A116.394,116.394,0,0,0,297.306,121.9c-1.464,1.922-2.814,3.922-4.1,5.962a100.827,100.827,0,0,1-34.374-7.7A101.59,101.59,0,0,1,219.391,90.706ZM171.014,264.3A161.369,161.369,0,0,1,268.8,217.96l20-2A8,8,0,0,0,296,208V172.569a66.288,66.288,0,0,1,9.441-34.09l.548-.911a66.218,66.218,0,0,1,11.126-13.876,8,8,0,0,0-3.581-13.554l-.462-.116a100.539,100.539,0,0,1-38.693-19.164,101.6,101.6,0,0,1-29.812-39.177l-6.86-16.008,19,4.749A101.263,101.263,0,0,1,303.74,67.053l5.113,5.114a101.473,101.473,0,0,1,9.4,10.844l16.613,22.15a8,8,0,0,0,9.1,2.733,66.189,66.189,0,0,1,72.2,18.734l16.394,18.736A20.208,20.208,0,0,1,437.5,160H427.313l-5.656-5.657a8,8,0,0,0-11.314,11.314l8,8A8,8,0,0,0,424,176h4.686l-17.007,17.007-8.262,2.754A68.348,68.348,0,0,1,340.8,185.6a8,8,0,0,0-9.6,12.8A84.293,84.293,0,0,0,408,211.089v73.686a98.1,98.1,0,0,1-37,76.978,8,8,0,0,0-2.873,7.678l16,88a8,8,0,0,0,4.293,5.724L400,468.944V480H371.313l-11.985-11.986-23.506-109.69a8,8,0,0,0-15.741.544,80.755,80.755,0,0,1-56.562,65.724L256,426.847V416a72.081,72.081,0,0,0-72-72,8,8,0,0,0,0,16,56.063,56.063,0,0,1,56,56v15.647l-1.176.353H216a8,8,0,0,0,0,16h44.223a8.041,8.041,0,0,1,3.578.845A43.5,43.5,0,0,1,287.277,480H164.005a26.008,26.008,0,0,1-22.724-13.367l-1.9-3.416-.362-3.387a39.5,39.5,0,0,1,17.416-37.174,8,8,0,1,0-8.875-13.312,55.507,55.507,0,0,0-20.834,25.677,159.887,159.887,0,0,1-7.7-66.055l.005-.054c.255-2.768.572-5.538.968-8.31l.2-1.409a156.846,156.846,0,0,1,44.087-88.168Z"/><circle cx="368" cy="136" r="15"/></g></svg>