<svg xmlns="http://www.w3.org/2000/svg"  viewBox="0 0 40 40" width="16px" height="16px"><path fill="#bae0bd" d="M24.25,32.5c-0.733-1.018-1.407-2.581-1.777-3.662l-0.169-0.495l-0.487,0.192 C20.605,29.012,19.086,29.5,17,29.5c-1.901,0-4.297-0.398-5.825-0.969l-0.48-0.179l-0.167,0.485 c-0.401,1.167-1.092,2.707-1.777,3.662H4.952c0.987-1.627,1.345-3.449,1.543-4.917L6.547,27.2l-0.357-0.147 C5.724,26.861,4.448,26.5,2.953,26.5H1.791c0.649-0.918,2.163-1.811,4.255-2.002L6.57,24.45l-0.075-0.521 c-0.088-0.604,0.272-1.485,0.419-1.774l0.049-0.096l0.005-0.108c0.22-5.085,3.464-7.664,9.64-7.664c1.873,0,2.81,0.273,3.801,0.563 C21.507,15.169,22.642,15.5,25,15.5h0.353l0.118-0.332c1.1-3.088,4.985-7.668,8.101-7.668c3.316,0,4.929,2.057,4.929,6.286 c0,2.048-1.57,3.714-3.5,3.714c-1.166,0-2.059-0.29-2.653-0.86l-0.303-0.29l-0.338,0.246C28.3,19.077,26.5,22.329,26.5,26 c0,2.63,0.52,4.812,1.547,6.5H24.25z"/><path fill="#5e9c76" d="M33.571,8C35.473,8,38,8.6,38,13.786C38,15.528,36.626,17,35,17c-1.032,0-1.809-0.243-2.307-0.721 l-0.604-0.58l-0.677,0.493C27.871,18.771,26,22.163,26,26c0,2.348,0.404,4.357,1.205,6h-2.693 c-0.611-0.922-1.208-2.278-1.566-3.323l-0.339-0.991l-0.974,0.384C20.408,28.553,18.999,29,17,29c-1.849,0-4.173-0.385-5.65-0.937 l-0.961-0.359l-0.334,0.97C9.693,29.725,9.094,31.083,8.488,32H5.794c0.725-1.489,1.022-3.054,1.197-4.35l0.104-0.765l-0.714-0.294 C5.892,26.39,4.574,26.013,3.032,26c0.734-0.493,1.795-0.889,3.059-1.004l1.05-0.096L6.99,23.857 c-0.057-0.394,0.183-1.102,0.37-1.476l0.098-0.193l0.009-0.216c0.207-4.768,3.282-7.186,9.14-7.186 c1.802,0,2.663,0.251,3.661,0.543C21.347,15.643,22.57,16,25,16h0.705l0.237-0.664C26.97,12.45,30.709,8,33.571,8 M33.571,7 c-3.456,0-7.469,4.904-8.571,8c-4.453,0-4.396-1.214-8.393-1.214c-7.548,0-9.954,3.865-10.139,8.143c0,0-0.597,1.179-0.468,2.071 c-2.604,0.238-4.613,1.544-5,3c0.812,0,1.034,0,1.953,0C4.471,27,5.689,27.388,6,27.516C5.732,29.497,5.24,31.424,4,33h5 c0.808-1.028,1.582-2.784,2-4c1.562,0.583,4.004,1,6,1c2.003,0,3.521-0.417,5-1c0.418,1.223,1.187,2.966,2,4h5 c-1.526-1.941-2-4.482-2-7c0-3.728,1.928-6.761,5-9c0.781,0.75,1.895,1,3,1c2.249,0,4-1.966,4-4.214C39,11.114,38.364,7,33.571,7 L33.571,7z"/><path fill="#36404d" d="M34.5 11A1.5 1.5 0 1 0 34.5 14A1.5 1.5 0 1 0 34.5 11Z"/><g><path fill="#d6aa70" d="M6,25.5c-0.827,0-1.5-0.673-1.5-1.5c0-0.572,0.324-1.086,0.845-1.341l0.278-0.132l0.389-0.201 l-0.149-0.412c-0.6-1.656-0.325-3.803,0.733-5.742c1.179-2.156,3.158-3.826,5.574-4.702c1.608-0.582,3.208-0.878,4.755-0.878 c3.274,0,5.806,1.371,6.605,3.578l0.119,0.33H25c0.675,0,1.233,0.414,1.423,1.055C26.476,15.728,26.5,15.867,26.5,16 c0,0.295-0.142,0.641-0.273,0.866c-0.979,1.683-5.643,4.251-9.402,5.666c-5.232,1.969-8.8,2.968-10.605,2.968H6z"/><path fill="#7a4f34" d="M16.925,10.092v1c3.058,0,5.409,1.245,6.135,3.248L23.299,15H24h1c0.448,0,0.818,0.274,0.947,0.708 C25.983,15.826,26,15.918,26,16c0,0.182-0.106,0.445-0.207,0.616c-0.809,1.392-4.997,3.886-9.146,5.448 C11.471,24.012,7.962,25,6.219,25H6c-0.551,0-1-0.449-1-1c0-0.38,0.216-0.722,0.555-0.887l0.09-0.041 c0.074-0.034,0.148-0.068,0.209-0.1l0.778-0.404l-0.299-0.824c-0.552-1.523-0.289-3.517,0.703-5.332 c1.119-2.049,3.004-3.637,5.306-4.471c1.531-0.555,3.116-0.848,4.584-0.848V10.092 M16.925,10.092 c-1.545,0-3.223,0.291-4.925,0.908c-5.464,1.979-7.914,7.478-6.608,11.084c-0.077,0.04-0.178,0.083-0.267,0.125 C4.461,22.535,4,23.211,4,24c0,1.105,0.895,2,2,2c0.046,0,0.189,0,0.219,0c2.078,0,5.992-1.198,10.781-3 c3.875-1.458,8.595-4.052,9.658-5.881C26.792,16.89,27,16.443,27,16c0-0.206-0.04-0.4-0.098-0.587C26.658,14.588,25.918,14,25,14 c-0.228,0-0.776,0-1,0C23.1,11.517,20.34,10.092,16.925,10.092L16.925,10.092z"/></g></svg>