<svg xmlns="http://www.w3.org/2000/svg"  viewBox="0 0 512 512" width="64px" height="64px"><path fill="#acabb1" d="M112,144H400a0,0,0,0,1,0,0V456a40,40,0,0,1-40,40H152a40,40,0,0,1-40-40V144A0,0,0,0,1,112,144Z"/><rect width="352" height="57" x="80" y="87" fill="#3e3d42"/><rect width="272" height="23" x="120" y="64" fill="#57565c"/><path fill="#acabb1" d="M212,16h88a20,20,0,0,1,20,20V64a0,0,0,0,1,0,0H192a0,0,0,0,1,0,0V36A20,20,0,0,1,212,16Z"/><rect width="32" height="256" x="240" y="184" fill="#57565c"/><rect width="32" height="256" x="152" y="184" fill="#57565c"/><rect width="32" height="256" x="328" y="184" fill="#57565c"/><g><path d="M432,79H400V64a8,8,0,0,0-8-8H328V36A28.031,28.031,0,0,0,300,8H212a28.031,28.031,0,0,0-28,28V56H120a8,8,0,0,0-8,8V79H80a8,8,0,0,0-8,8v57a8,8,0,0,0,8,8h24V456a48.051,48.051,0,0,0,48,48H360a48.051,48.051,0,0,0,48-48V152h24a8,8,0,0,0,8-8V87A8,8,0,0,0,432,79ZM200,36a12.01,12.01,0,0,1,12-12h88a12.01,12.01,0,0,1,12,12V56H200ZM128,72H384v7H128ZM392,456a32.03,32.03,0,0,1-32,32H152a32.03,32.03,0,0,1-32-32V152H392Zm32-320H88V95H424Z"/><path d="M240,448h32a8,8,0,0,0,8-8V184a8,8,0,0,0-8-8H240a8,8,0,0,0-8,8V440A8,8,0,0,0,240,448Zm8-256h16V432H248Z"/><path d="M152,448h32a8,8,0,0,0,8-8V184a8,8,0,0,0-8-8H152a8,8,0,0,0-8,8V440A8,8,0,0,0,152,448Zm8-256h16V432H160Z"/><path d="M328,448h32a8,8,0,0,0,8-8V184a8,8,0,0,0-8-8H328a8,8,0,0,0-8,8V440A8,8,0,0,0,328,448Zm8-256h16V432H336Z"/></g></svg>