<svg width="114" height="120" viewBox="0 0 114 120" fill="none" xmlns="http://www.w3.org/2000/svg">
<path d="M3.5625 95.5374L110.438 95.5374L110.437 16.8595L3.5625 16.8595L3.5625 95.5374Z" fill="#3E3D42"/>
<path d="M105.094 31.8458V22.4794H8.90625V89.9175H105.094V80.5511" fill="#ACABB1"/>
<path d="M99.75 50.5786H110.438V31.8458H99.75V50.5786Z" fill="#FFDA44"/>
<path d="M99.75 80.5511H110.438V61.8183H99.75V80.5511Z" fill="#FFDA44"/>
<path d="M87.2812 103.03H105.094V95.5373H87.2812V103.03Z" fill="#ACABB1"/>
<path d="M8.90625 103.03H26.7188V95.5373H8.90625V103.03Z" fill="#ACABB1"/>
<path d="M39.1875 74.9313C49.0251 74.9313 57 66.5443 57 56.1985C57 45.8526 49.0251 37.4656 39.1875 37.4656C29.3499 37.4656 21.375 45.8526 21.375 56.1985C21.375 66.5443 29.3499 74.9313 39.1875 74.9313Z" fill="#FFDA44"/>
<path d="M49.2636 40.3032L54.3018 45.6016L59.3399 40.3032L54.3018 35.0047L49.2636 40.3032Z" fill="#3E3D42"/>
<path d="M19.0351 72.0937L24.0732 77.3922L29.1114 72.0937L24.0732 66.7953L19.0351 72.0937Z" fill="#3E3D42"/>
<path d="M24.0732 45.6016L29.1113 40.3032L24.0732 35.0047L19.0351 40.3032L24.0732 45.6016Z" fill="#3E3D42"/>
<path d="M54.302 77.3921L59.3401 72.0937L54.302 66.7953L49.2638 72.0937L54.302 77.3921Z" fill="#3E3D42"/>
<path d="M110.438 14.9862H3.5625C3.09008 14.9862 2.63702 15.1836 2.30297 15.5349C1.96892 15.8862 1.78125 16.3627 1.78125 16.8595V95.5373C1.78125 96.0341 1.96892 96.5106 2.30297 96.8619C2.63702 97.2132 3.09008 97.4106 3.5625 97.4106H7.125V103.03C7.125 103.527 7.31267 104.004 7.64672 104.355C7.98077 104.706 8.43383 104.904 8.90625 104.904H26.7188C27.1912 104.904 27.6442 104.706 27.9783 104.355C28.3123 104.004 28.5 103.527 28.5 103.03V97.4106H85.5V103.03C85.5 103.527 85.6877 104.004 86.0217 104.355C86.3558 104.706 86.8088 104.904 87.2813 104.904H105.094C105.566 104.904 106.019 104.706 106.353 104.355C106.687 104.004 106.875 103.527 106.875 103.03V97.4106H110.438C110.91 97.4106 111.363 97.2132 111.697 96.8619C112.031 96.5106 112.219 96.0341 112.219 95.5373V16.8595C112.219 16.3627 112.031 15.8862 111.697 15.5349C111.363 15.1836 110.91 14.9862 110.438 14.9862ZM24.9375 101.157H10.6875V97.4106H24.9375V101.157ZM103.313 101.157H89.0625V97.4106H103.313V101.157ZM108.656 78.6778H101.531V63.6915H108.656V78.6778ZM99.75 52.4519H103.313V59.945H99.75C99.2776 59.945 98.8245 60.1423 98.4905 60.4937C98.1564 60.845 97.9688 61.3214 97.9688 61.8183V80.5511C97.9688 81.0479 98.1564 81.5244 98.4905 81.8757C98.8245 82.227 99.2776 82.4244 99.75 82.4244H103.313V88.0442H10.6875V24.3526H103.313V29.9725H99.75C99.2776 29.9725 98.8245 30.1698 98.4905 30.5212C98.1564 30.8725 97.9688 31.3489 97.9688 31.8458V50.5786C97.9688 51.0754 98.1564 51.5519 98.4905 51.9032C98.8245 52.2545 99.2776 52.4519 99.75 52.4519ZM108.656 59.945H106.875V52.4519H108.656V59.945ZM108.656 48.7053H101.531V33.719H108.656V48.7053ZM108.656 29.9725H106.875V22.4794C106.875 21.9825 106.687 21.5061 106.353 21.1548C106.019 20.8034 105.566 20.6061 105.094 20.6061H8.90625C8.43383 20.6061 7.98077 20.8034 7.64672 21.1548C7.31267 21.5061 7.125 21.9825 7.125 22.4794V89.9175C7.125 90.4143 7.31267 90.8908 7.64672 91.2421C7.98077 91.5934 8.43383 91.7908 8.90625 91.7908H105.094C105.566 91.7908 106.019 91.5934 106.353 91.2421C106.687 90.8908 106.875 90.4143 106.875 89.9175V82.4244H108.656V93.664H5.34375V18.7328H108.656V29.9725Z" fill="black"/>
<path d="M17.2537 72.0937C17.2537 72.3397 17.2998 72.5833 17.3893 72.8106C17.4788 73.0379 17.61 73.2444 17.7754 73.4183L22.8137 78.7169C23.1477 79.0682 23.6008 79.2655 24.0731 79.2655C24.5455 79.2655 24.9985 79.0682 25.3326 78.7169L29.6341 74.1932C32.5549 75.9056 35.8435 76.8045 39.1876 76.8045C42.5317 76.8045 45.8202 75.9056 48.7411 74.1932L53.0426 78.7169C53.3766 79.0682 53.8297 79.2655 54.3021 79.2655C54.7744 79.2655 55.2275 79.0682 55.5615 78.7169L60.5998 73.4183C60.7652 73.2444 60.8964 73.0379 60.9859 72.8106C61.0754 72.5833 61.1215 72.3397 61.1215 72.0937C61.1215 71.8477 61.0754 71.6041 60.9859 71.3768C60.8964 71.1495 60.7652 70.943 60.5998 70.769L56.2983 66.2453C57.9266 63.1736 58.7813 59.7152 58.7813 56.1984C58.7813 52.6816 57.9266 49.2232 56.2983 46.1515L60.5998 41.6278C60.7652 41.4538 60.8964 41.2473 60.9859 41.0201C61.0754 40.7928 61.1215 40.5492 61.1215 40.3032C61.1215 40.0571 61.0754 39.8135 60.9859 39.5863C60.8964 39.359 60.7652 39.1525 60.5998 38.9785L55.5615 33.6799C55.2275 33.3287 54.7744 33.1313 54.3021 33.1313C53.8297 33.1313 53.3766 33.3287 53.0426 33.6799L48.7411 38.2037C45.8202 36.4912 42.5317 35.5923 39.1876 35.5923C35.8435 35.5923 32.5549 36.4912 29.6341 38.2037L25.3326 33.6799C24.9985 33.3287 24.5455 33.1313 24.0731 33.1313C23.6008 33.1313 23.1477 33.3287 22.8137 33.6799L17.7754 38.9785C17.61 39.1525 17.4788 39.359 17.3893 39.5863C17.2997 39.8135 17.2537 40.0571 17.2537 40.3032C17.2537 40.5492 17.2997 40.7928 17.3893 41.0201C17.4788 41.2473 17.61 41.4538 17.7754 41.6278L22.0769 46.1515C20.4486 49.2232 19.5938 52.6816 19.5938 56.1984C19.5938 59.7152 20.4486 63.1736 22.0769 66.2453L17.7754 70.769C17.61 70.943 17.4788 71.1495 17.3893 71.3768C17.2998 71.6041 17.2537 71.8477 17.2537 72.0937ZM54.3019 69.4444L56.822 72.0937L54.3019 74.7439L51.7828 72.0946L53.0413 70.7711V70.7697L54.3019 69.4444ZM51.7828 40.3032L54.3019 37.6529L56.822 40.3032L54.3028 42.9524L53.0444 41.629V41.6276L51.7828 40.3032ZM50.5235 44.2771C53.146 47.0352 54.7781 50.6643 55.1416 54.5461C55.5051 58.4279 54.5775 62.3221 52.5169 65.5652C50.4563 68.8084 47.3902 71.1998 43.841 72.332C40.2918 73.4643 36.479 73.2672 33.0525 71.7745C29.6259 70.2818 26.7975 67.5858 25.0491 64.1458C23.3008 60.7058 22.7407 56.7348 23.4643 52.9092C24.1879 49.0836 26.1504 45.6402 29.0175 43.1658C31.8845 40.6913 35.4787 39.3389 39.1876 39.3389C41.2937 39.3328 43.3801 39.7662 45.3259 40.6138C47.2717 41.4615 49.0383 42.7066 50.5235 44.2771ZM24.0732 42.9524L21.5532 40.3032L24.0732 37.6529L26.5924 40.3022L25.3339 41.6257L25.3328 41.6271L24.0732 42.9524ZM24.0732 69.4444L25.3317 70.7679L25.3328 70.7693L26.5913 72.0927L24.0732 74.7439L21.5532 72.0937L24.0732 69.4444Z" fill="black"/>
<path d="M35.625 61.8183C35.1526 61.8183 34.6995 62.0156 34.3655 62.3669C34.0314 62.7183 33.8438 63.1947 33.8438 63.6916C33.8438 64.1884 34.0314 64.6649 34.3655 65.0162C34.6995 65.3675 35.1526 65.5648 35.625 65.5648H37.4062C37.4062 66.0617 37.5939 66.5381 37.928 66.8895C38.262 67.2408 38.7151 67.4381 39.1875 67.4381C39.6599 67.4381 40.113 67.2408 40.447 66.8895C40.7811 66.5381 40.9688 66.0617 40.9688 65.5648H42.75C43.2224 65.5648 43.6755 65.3675 44.0095 65.0162C44.3436 64.6649 44.5312 64.1884 44.5312 63.6916V56.1984C44.5312 55.7016 44.3436 55.2251 44.0095 54.8738C43.6755 54.5225 43.2224 54.3252 42.75 54.3252H37.4062V50.5786H42.75C43.2224 50.5786 43.6755 50.3812 44.0095 50.0299C44.3436 49.6786 44.5312 49.2021 44.5312 48.7053C44.5312 48.2085 44.3436 47.732 44.0095 47.3807C43.6755 47.0294 43.2224 46.832 42.75 46.832H40.9688C40.9688 46.3352 40.7811 45.8587 40.447 45.5074C40.113 45.1561 39.6599 44.9587 39.1875 44.9587C38.7151 44.9587 38.262 45.1561 37.928 45.5074C37.5939 45.8587 37.4062 46.3352 37.4062 46.832H35.625C35.1526 46.832 34.6995 47.0294 34.3655 47.3807C34.0314 47.732 33.8438 48.2085 33.8438 48.7053V56.1984C33.8438 56.6953 34.0314 57.1717 34.3655 57.523C34.6995 57.8744 35.1526 58.0717 35.625 58.0717H40.9688V61.8183H35.625Z" fill="black"/>
</svg>
