<svg width="38" height="38" viewBox="0 0 38 38" fill="none" xmlns="http://www.w3.org/2000/svg">
<path d="M19 1.1875C9.20312 1.1875 1.1875 9.20312 1.1875 19C1.1875 28.7969 9.20312 36.8125 19 36.8125C28.7969 36.8125 36.8125 28.7969 36.8125 19C36.8125 9.20312 28.7969 1.1875 19 1.1875ZM30.875 28.6188C30.1625 27.9656 29.3906 27.3719 28.6188 26.8969C29.6281 24.8781 30.2219 22.6813 30.4 20.425H34.2C33.9625 23.5125 32.775 26.3625 30.875 28.6188ZM3.74063 20.425H7.48125C7.65938 22.6813 8.3125 24.8781 9.2625 26.8969C8.49063 27.4312 7.77812 27.9656 7.06562 28.6188C5.225 26.3625 4.0375 23.5125 3.74063 20.425V20.425ZM7.125 9.38125C7.8375 10.0344 8.55 10.5688 9.32187 11.1031C8.25312 13.2406 7.65938 15.5563 7.48125 17.9313H3.74063C3.91875 14.725 5.16563 11.7563 7.125 9.38125V9.38125ZM17.7531 5.7V11.4C16.0312 11.2813 14.3688 10.8063 12.7656 10.1531C14.0719 8.3125 15.7937 6.76875 17.7531 5.7V5.7ZM17.7531 13.8937V17.9313H9.975C10.0937 15.9125 10.6281 14.0125 11.5187 12.2906C13.4187 13.2406 15.5562 13.775 17.7531 13.8937V13.8937ZM17.7531 20.425V24.1062C15.5562 24.2844 13.4187 24.8187 11.4594 25.7094C10.6875 24.1062 10.1531 22.325 9.975 20.425H17.7531V20.425ZM17.7531 26.6V32.3594C15.7344 31.2313 14.0719 29.7469 12.7656 27.9062C14.3094 27.1937 16.0312 26.7187 17.7531 26.6ZM20.2469 32.3V26.6C21.9687 26.7187 23.6313 27.1344 25.175 27.8469C23.8688 29.6281 22.2062 31.1719 20.2469 32.3ZM20.2469 24.1062V20.425H27.9062C27.7281 22.2656 27.1937 24.0469 26.4219 25.65C24.5219 24.7594 22.4437 24.225 20.2469 24.1062V24.1062ZM20.2469 17.9313V13.8937C22.4437 13.775 24.5219 13.1813 26.4812 12.2906C27.3125 14.0125 27.8469 15.9125 27.9656 17.8719H20.2469V17.9313ZM20.2469 11.4V5.7C22.2062 6.82813 23.8688 8.3125 25.175 10.1531C23.6313 10.8656 21.9687 11.2813 20.2469 11.4V11.4ZM26.4219 7.71875C25.2344 6.29375 23.8687 5.04688 22.325 4.09688C24.9375 4.69063 27.2531 5.87813 29.1531 7.6C28.5594 8.13438 27.9656 8.55 27.3719 8.96563C27.075 8.55 26.7781 8.075 26.4219 7.71875V7.71875ZM11.5187 7.71875C11.2219 8.13437 10.8656 8.55 10.5687 8.96563C9.975 8.55 9.38125 8.13438 8.84687 7.6C10.7469 5.9375 13.0625 4.69063 15.6156 4.09688C14.0125 5.04688 12.6469 6.29375 11.5187 7.71875V7.71875ZM10.5687 29.0938C10.8062 29.45 11.0438 29.8063 11.3406 30.1031C12.5281 31.5875 13.9531 32.8937 15.5563 33.9031C13.0031 33.3094 10.6875 32.1219 8.7875 30.4C9.38125 29.925 9.975 29.5094 10.5687 29.0938ZM26.4812 30.2812C26.7781 29.8656 27.1344 29.45 27.4313 29.0344C28.0844 29.45 28.6781 29.925 29.2125 30.4C27.3125 32.1219 24.9375 33.3094 22.3844 33.9031C23.8688 32.9531 25.2937 31.7063 26.4812 30.2812V30.2812ZM30.4594 17.9313C30.3406 15.5563 29.6875 13.2406 28.6188 11.1031C29.3906 10.5688 30.1625 10.0344 30.875 9.38125C32.775 11.7563 34.0219 14.725 34.2594 17.9313H30.4594Z" fill="#4FD1D9"/>
</svg>
