<svg width="50" height="50" viewBox="0 0 50 50" fill="none" xmlns="http://www.w3.org/2000/svg">
<path d="M40.7155 14.722L8.24048 33.4715L9.28215 35.2757L41.7572 16.5262L40.7155 14.722Z" fill="#64717C"/>
<path d="M9.28239 14.7248L8.24072 16.5291L40.7158 35.2785L41.7574 33.4743L9.28239 14.7248Z" fill="#64717C"/>
<path d="M26.0416 6.25H23.9583V43.75H26.0416V6.25Z" fill="#64717C"/>
<path d="M25 9.375C26.7259 9.375 28.125 7.97589 28.125 6.25C28.125 4.52411 26.7259 3.125 25 3.125C23.2741 3.125 21.875 4.52411 21.875 6.25C21.875 7.97589 23.2741 9.375 25 9.375Z" fill="url(#paint0_linear_42_27)"/>
<path d="M8.33325 18.75C10.0591 18.75 11.4583 17.3509 11.4583 15.625C11.4583 13.8991 10.0591 12.5 8.33325 12.5C6.60736 12.5 5.20825 13.8991 5.20825 15.625C5.20825 17.3509 6.60736 18.75 8.33325 18.75Z" fill="url(#paint1_linear_42_27)"/>
<path d="M8.33325 37.5C10.0591 37.5 11.4583 36.1009 11.4583 34.375C11.4583 32.6491 10.0591 31.25 8.33325 31.25C6.60736 31.25 5.20825 32.6491 5.20825 34.375C5.20825 36.1009 6.60736 37.5 8.33325 37.5Z" fill="url(#paint2_linear_42_27)"/>
<path d="M41.6667 18.75C43.3926 18.75 44.7917 17.3509 44.7917 15.625C44.7917 13.8991 43.3926 12.5 41.6667 12.5C39.9409 12.5 38.5417 13.8991 38.5417 15.625C38.5417 17.3509 39.9409 18.75 41.6667 18.75Z" fill="url(#paint3_linear_42_27)"/>
<path d="M41.6667 37.5C43.3926 37.5 44.7917 36.1009 44.7917 34.375C44.7917 32.6491 43.3926 31.25 41.6667 31.25C39.9409 31.25 38.5417 32.6491 38.5417 34.375C38.5417 36.1009 39.9409 37.5 41.6667 37.5Z" fill="url(#paint4_linear_42_27)"/>
<path d="M25 46.875C26.7259 46.875 28.125 45.4759 28.125 43.75C28.125 42.0241 26.7259 40.625 25 40.625C23.2741 40.625 21.875 42.0241 21.875 43.75C21.875 45.4759 23.2741 46.875 25 46.875Z" fill="url(#paint5_linear_42_27)"/>
<path d="M25.0001 30.2083C27.8766 30.2083 30.2084 27.8765 30.2084 25C30.2084 22.1235 27.8766 19.7917 25.0001 19.7917C22.1236 19.7917 19.7917 22.1235 19.7917 25C19.7917 27.8765 22.1236 30.2083 25.0001 30.2083Z" fill="url(#paint6_linear_42_27)"/>
<defs>
<linearGradient id="paint0_linear_42_27" x1="22.9281" y1="4.17813" x2="27.3042" y2="8.55521" gradientUnits="userSpaceOnUse">
<stop stop-color="#33BEF0"/>
<stop offset="1" stop-color="#0A85D9"/>
</linearGradient>
<linearGradient id="paint1_linear_42_27" x1="6.26138" y1="13.5531" x2="10.6385" y2="17.9292" gradientUnits="userSpaceOnUse">
<stop stop-color="#33BEF0"/>
<stop offset="1" stop-color="#0A85D9"/>
</linearGradient>
<linearGradient id="paint2_linear_42_27" x1="6.26138" y1="32.3031" x2="10.6385" y2="36.6792" gradientUnits="userSpaceOnUse">
<stop stop-color="#33BEF0"/>
<stop offset="1" stop-color="#0A85D9"/>
</linearGradient>
<linearGradient id="paint3_linear_42_27" x1="39.5949" y1="13.5531" x2="43.9709" y2="17.9292" gradientUnits="userSpaceOnUse">
<stop stop-color="#33BEF0"/>
<stop offset="1" stop-color="#0A85D9"/>
</linearGradient>
<linearGradient id="paint4_linear_42_27" x1="39.5949" y1="32.3031" x2="43.9709" y2="36.6792" gradientUnits="userSpaceOnUse">
<stop stop-color="#33BEF0"/>
<stop offset="1" stop-color="#0A85D9"/>
</linearGradient>
<linearGradient id="paint5_linear_42_27" x1="22.9281" y1="41.6781" x2="27.3042" y2="46.0542" gradientUnits="userSpaceOnUse">
<stop stop-color="#33BEF0"/>
<stop offset="1" stop-color="#0A85D9"/>
</linearGradient>
<linearGradient id="paint6_linear_42_27" x1="23.323" y1="20.8844" x2="26.573" y2="28.8604" gradientUnits="userSpaceOnUse">
<stop stop-color="#2AA4F4"/>
<stop offset="1" stop-color="#007AD9"/>
</linearGradient>
</defs>
</svg>
