<svg width="50" height="50" viewBox="0 0 50 50" fill="none" xmlns="http://www.w3.org/2000/svg">
<path d="M18.75 34.375C27.3794 34.375 34.375 27.3794 34.375 18.75C34.375 10.1206 27.3794 3.125 18.75 3.125C10.1206 3.125 3.125 10.1206 3.125 18.75C3.125 27.3794 10.1206 34.375 18.75 34.375Z" fill="#3F51B5"/>
<path d="M21.1459 16.6667V18.4375H17.1876V19.8958H21.1459V21.6667H17.1876C17.1876 22.2917 17.2917 22.9167 17.5001 23.3333C17.7084 23.75 17.9167 24.1667 18.2292 24.375C18.5417 24.6875 18.9584 24.7917 19.3751 25C19.7917 25.1042 20.3126 25.2083 20.8334 25.2083C21.2501 25.2083 21.5626 25.2083 21.9792 25.1042C22.3959 25 22.7084 25 23.0209 24.7917L23.4376 27.6042C23.0209 27.7083 22.5001 27.8125 21.9792 27.8125C21.4584 27.9167 20.9376 27.9167 20.4167 27.9167C19.4792 27.9167 18.5417 27.8125 17.7084 27.5C16.8751 27.2917 16.1459 26.875 15.6251 26.3542C15.0001 25.8333 14.5834 25.2083 14.1667 24.375C13.8542 23.6458 13.6459 22.7083 13.6459 21.6667H11.6667V19.8958H13.6459V18.4375H11.6667V16.6667H13.6459C13.7501 15.625 13.9584 14.7917 14.2709 13.9583C14.6876 13.2292 15.1042 12.5 15.7292 11.9792C16.3542 11.4583 17.0834 11.0417 17.9167 10.8333C18.7501 10.5208 19.6876 10.4167 20.6251 10.4167C21.0417 10.4167 21.5626 10.4167 21.9792 10.5208C22.3959 10.625 22.9167 10.625 23.3334 10.8333L22.9167 13.6458C22.6042 13.5417 22.2917 13.4375 21.8751 13.3333C21.4584 13.2292 21.1459 13.2292 20.7292 13.2292C20.2084 13.2292 19.6876 13.3333 19.2709 13.4375C18.8542 13.5417 18.4376 13.75 18.2292 14.0625C17.9167 14.375 17.7084 14.6875 17.5001 15.1042C17.2917 15.5208 17.1876 16.0417 17.1876 16.6667H21.1459Z" fill="#FFF59D"/>
<path d="M31.25 46.875C39.8794 46.875 46.875 39.8794 46.875 31.25C46.875 22.6206 39.8794 15.625 31.25 15.625C22.6206 15.625 15.625 22.6206 15.625 31.25C15.625 39.8794 22.6206 46.875 31.25 46.875Z" fill="#4CAF50"/>
<path d="M29.5833 28.125C29.6874 28.3333 29.7916 28.5417 29.9999 28.75C30.2083 28.9583 30.4166 29.1667 30.7291 29.2708C31.0416 29.4792 31.4583 29.5833 31.8749 29.7917C32.6041 30.1042 33.3332 30.4167 33.9582 30.7292C34.5832 31.0417 35.1041 31.4583 35.5207 31.875C35.9374 32.2917 36.3541 32.8125 36.5624 33.3333C36.7707 33.8542 36.9791 34.5833 36.9791 35.3125C36.9791 36.0417 36.8749 36.6667 36.6666 37.1875C36.4583 37.7083 36.1457 38.2292 35.7291 38.6458C35.3124 39.0625 34.7916 39.375 34.2708 39.5833C33.6458 39.7917 33.0208 40 32.3958 40.1042V42.3958H30.5208V40.1042C29.8958 40 29.2708 39.8958 28.6458 39.6875C28.0208 39.4792 27.4999 39.1667 27.0833 38.6458C26.5624 38.2292 26.2499 37.6042 25.9374 36.9792C25.6249 36.3542 25.5208 35.5208 25.5208 34.5833H28.9583C28.9583 35.1042 29.0624 35.625 29.1666 35.9375C29.2708 36.3542 29.4791 36.5625 29.7916 36.875C29.9999 37.0833 30.3124 37.2917 30.6249 37.3958C30.9374 37.5 31.2499 37.5 31.5624 37.5C31.9791 37.5 32.2916 37.5 32.4999 37.3958C32.8124 37.2917 33.0208 37.1875 33.2291 36.9792C33.4374 36.7708 33.5416 36.5625 33.6458 36.3542C33.7499 36.1458 33.7499 35.8333 33.7499 35.5208C33.7499 35.2083 33.7499 34.8958 33.6458 34.6875C33.5416 34.4792 33.4374 34.1667 33.2291 33.9583C33.0208 33.75 32.8124 33.5417 32.4999 33.4375C32.1874 33.2292 31.7708 33.125 31.3541 32.9167C30.6249 32.6042 29.8958 32.2917 29.2708 31.9792C28.6458 31.6667 28.1249 31.25 27.7083 30.8333C27.2916 30.4167 26.8749 29.8958 26.6666 29.375C26.4583 28.8542 26.2499 28.125 26.2499 27.3958C26.2499 26.7708 26.3541 26.1458 26.5624 25.625C26.7708 25.1042 27.0833 24.5833 27.4999 24.1667C27.9166 23.75 28.4374 23.4375 28.9583 23.125C29.4791 22.9167 30.2083 22.7083 30.8333 22.6042V20.1042H32.7083V22.6042C33.3333 22.7083 33.9583 22.9167 34.5833 23.2292C35.1041 23.5417 35.6249 23.8542 35.9374 24.375C36.3541 24.7917 36.6666 25.4167 36.8749 26.0417C37.0833 26.6667 37.1874 27.3958 37.1874 28.125H33.7499C33.7499 27.1875 33.5416 26.4583 33.1249 26.0417C32.7083 25.625 32.1874 25.3125 31.5624 25.3125C31.2499 25.3125 30.9374 25.4167 30.6249 25.5208C30.4166 25.625 30.2083 25.7292 29.9999 25.9375C29.7916 26.1458 29.6874 26.3542 29.6874 26.5625C29.5833 26.7708 29.5833 27.0833 29.5833 27.3958C29.4791 27.6042 29.5833 27.9167 29.5833 28.125Z" fill="white"/>
</svg>
