<svg xmlns="http://www.w3.org/2000/svg"  viewBox="0 0 64 64" width="64px" height="64px"><polygon fill="#e9edf5" points="12 27 10 29 11 32 8 30 5 32 6 29 4 27 7 27 8 24 9 27 12 27"/><polygon fill="#e9edf5" points="23 27 21 29 22 32 19 30 16 32 17 29 15 27 18 27 19 24 20 27 23 27"/><polygon fill="#e9edf5" points="34 27 32 29 33 32 30 30 27 32 28 29 26 27 29 27 30 24 31 27 34 27"/><polygon fill="#e9edf5" points="17 17 15 19 16 22 13 20 10 22 11 19 9 17 12 17 13 14 14 17 17 17"/><polygon fill="#e9edf5" points="28 17 26 19 27 22 24 20 21 22 22 19 20 17 23 17 24 14 25 17 28 17"/><polygon fill="#e9edf5" points="34 7 32 9 33 12 30 10 27 12 28 9 26 7 29 7 30 4 31 7 34 7"/><polygon fill="#e9edf5" points="23 7 21 9 22 12 19 10 16 12 17 9 15 7 18 7 19 4 20 7 23 7"/><polygon fill="#e9edf5" points="12 7 10 9 11 12 8 10 5 12 6 9 4 7 7 7 8 4 9 7 12 7"/><rect width="62" height="5" x="1" y="54" fill="#e9edf5"/><rect width="62" height="5" x="1" y="44" fill="#e9edf5"/><polygon fill="#e9edf5" points="63 35 63 39 1 39 1 35 11 35 22 35 37 35 63 35"/><rect width="26" height="5" x="37" y="25" fill="#e9edf5"/><rect width="26" height="5" x="37" y="15" fill="#e9edf5"/><rect width="26" height="5" x="37" y="5" fill="#e9edf5"/><path fill="#e21743" d="M1,59H63a4,4,0,0,1-4,4H5A4,4,0,0,1,1,59Z"/><rect width="62" height="5" x="1" y="49" fill="#e21743"/><rect width="62" height="5" x="1" y="39" fill="#e21743"/><rect width="26" height="5" x="37" y="30" fill="#e21743"/><rect width="26" height="5" x="37" y="20" fill="#e21743"/><rect width="26" height="5" x="37" y="10" fill="#e21743"/><path fill="#e21743" d="M63,5H37V1H59A4,4,0,0,1,63,5Z"/><path fill="#2a54c4" d="M19,1H5A4,4,0,0,0,1,5V35H37V1ZM18,7l1-3,1,3h3L21,9l1,3-3-2-3,2,1-3L15,7ZM7,7,8,4,9,7h3L10,9l1,3L8,10,5,12,6,9,4,7Zm4,25L8,30,5,32l1-3L4,27H7l1-3,1,3h3l-2,2ZM10,22l1-3L9,17h3l1-3,1,3h3l-2,2,1,3-3-2ZM22,32l-3-2-3,2,1-3-2-2h3l1-3,1,3h3l-2,2ZM21,22l1-3-2-2h3l1-3,1,3h3l-2,2,1,3-3-2ZM33,32l-3-2-3,2,1-3-2-2h3l1-3,1,3h3l-2,2ZM32,9l1,3-3-2-3,2,1-3L26,7h3l1-3,1,3h3Z"/><path fill="#dce1eb" d="M63,20V17a22.161,22.161,0,0,1-.209,3Z"/><path fill="#bec3d2" d="M5,32l1.2-.8q-.339-.4-.661-.82Z"/><rect width="62" height="5" x="1" y="54" fill="#dce1eb"/><rect width="62" height="5" x="1" y="44" fill="#dce1eb"/><path fill="#dce1eb" d="M10.358,35H1v4H23A21.894,21.894,0,0,1,10.358,35Z"/><path fill="#dce1eb" d="M41,39H63V35H53.642A21.894,21.894,0,0,1,41,39Z"/><path fill="#dce1eb" d="M58.745,30H63V25H61.493A21.9,21.9,0,0,1,58.745,30Z"/><path fill="#b51135" d="M5,63H59a4,4,0,0,0,4-4H1A4,4,0,0,0,5,63Z"/><rect width="62" height="5" x="1" y="49" fill="#b51135"/><polygon fill="#b51135" points="23 39 1 39 1 44 63 44 63 39 41 39 23 39"/><path fill="#b51135" d="M53.642,35H63V30H58.745A22.118,22.118,0,0,1,53.642,35Z"/><path fill="#b51135" d="M61.493,25H63V20h-.209A21.8,21.8,0,0,1,61.493,25Z"/><path fill="#2448a8" d="M6.2,31.2,5,32l.54-1.621A21.9,21.9,0,0,1,1,17V35h9.358A22.134,22.134,0,0,1,6.2,31.2Z"/><path fill="#ea5172" d="M59,1H37V5H59a4,4,0,0,1,4,4V5A4,4,0,0,0,59,1Z"/><path fill="#4f7fff" d="M37,1H5A4,4,0,0,0,1,5V9A4,4,0,0,1,5,5H7.667L8,4l.333,1H18.667L19,4l.333,1H29.667L30,4l.333,1H37Z"/><polygon fill="#f7faff" points="29.667 5 30.333 5 30 4 29.667 5"/><polygon fill="#f7faff" points="18.667 5 19.333 5 19 4 18.667 5"/><polygon fill="#f7faff" points="7.667 5 8.333 5 8 4 7.667 5"/><path fill="#9da3b5" d="M1,55v4H5A4,4,0,0,1,1,55Z"/><path fill="#9da3b5" d="M59,59h4V55A4,4,0,0,1,59,59Z"/><path fill="#750a26" d="M5,59H1a4,4,0,0,0,4,4H59a4,4,0,0,0,4-4H5Z"/></svg>