<svg xmlns="http://www.w3.org/2000/svg"  viewBox="0 0 64 64" width="64px" height="64px"><g data-name="14-South Africa"><path fill="#eef2fa" d="M63,38v5H35L6,63H5a4,4,0,0,1-3.89-3.07L34,38Z"/><path fill="#eef2fa" d="M63,21v5H34L1.11,4.07A4,4,0,0,1,5,1H6L35,21Z"/><polygon fill="#ffd45d" points="21 32 1 46 1 41 14 32 1 23 1 18 21 32"/><polygon fill="#2a2e33" points="14 32 1 41 1 23 14 32"/><path fill="#2448a8" d="M63,43V59a4,4,0,0,1-4,4H6L35,43Z"/><path fill="#009e60" d="M63,26V38H34L1.11,59.93A4.081,4.081,0,0,1,1,59V46L21,32,1,18V5a4.081,4.081,0,0,1,.11-.93L34,26Z"/><path fill="#e21743" d="M63,5V21H35L6,1H59A4,4,0,0,1,63,5Z"/><path fill="#cdd2e1" d="M41,39H32.5L1.11,59.93A4,4,0,0,0,5,63H6L35,43H63V38H47.574A22,22,0,0,1,41,39Z"/><path fill="#cdd2e1" d="M61.074,26H63V21h-.37A21.823,21.823,0,0,1,61.074,26Z"/><path fill="#ffb844" d="M10.017,34.757,1,41v5l12.849-8.994A21.993,21.993,0,0,1,10.017,34.757Z"/><path fill="#ffb844" d="M1.026,18.018,1,18v5l1.052.728A21.893,21.893,0,0,1,1.026,18.018Z"/><path fill="#15171a" d="M2.052,23.728,1,23V41l9.017-6.243A22.04,22.04,0,0,1,2.052,23.728Z"/><path fill="#1f3d8f" d="M6,63H59a4,4,0,0,0,4-4V43H35Z"/><path fill="#008f57" d="M47.574,38H63V26H61.074A22.059,22.059,0,0,1,47.574,38Z"/><path fill="#008f57" d="M23,39a21.911,21.911,0,0,1-9.151-1.994L1,46V59a4.081,4.081,0,0,0,.11.93L32.5,39Z"/><path fill="#c7002b" d="M63,21V17a22.058,22.058,0,0,1-.37,4Z"/><path fill="#bec3d2" d="M5,59a3.946,3.946,0,0,1-1.814-.454L1.11,59.93A4,4,0,0,0,5,63H6l5.8-4Z"/><path fill="#172e6b" d="M59,59H11.8L6,63H59a4,4,0,0,0,4-4V55A4,4,0,0,1,59,59Z"/><path fill="#007145" d="M1,55v4a4.081,4.081,0,0,0,.11.93l2.076-1.384A3.984,3.984,0,0,1,1,55Z"/><path fill="#fff" d="M5,5h6.8L6,1H5A4,4,0,0,0,1.11,4.07L3.186,5.454A3.946,3.946,0,0,1,5,5Z"/><path fill="#00e088" d="M3.186,5.454,1.11,4.07A4.081,4.081,0,0,0,1,5V9A3.984,3.984,0,0,1,3.186,5.454Z"/><path fill="#ea5172" d="M59,1H6l5.8,4H59a4,4,0,0,1,4,4V5A4,4,0,0,0,59,1Z"/></g></svg>