<svg xmlns="http://www.w3.org/2000/svg"  viewBox="0 0 48 48" width="48px" height="48px" baseProfile="basic"><path fill="#e27625" d="M6.063,5L21.59,16.796L19.063,10L6.063,5z"/><path fill="#e27625" d="M4,32l3,9l9.062-3l-4.333-6.065L4,32z"/><path fill="#e27625" d="M15.313,20.375L12.938,25l9.125,0.25L21.188,15L15.313,20.375z"/><path fill="#e27625" d="M16.063,38l5.031-2l-4.531-4L16.063,38z"/><path fill="#d7ccc8" d="M16.063,38l4.812,2.875L21.094,36L16.063,38z"/><path fill="#cc6228" d="M16.062,38l0.5-6h-4.875L16.062,38z"/><path fill="#fb8c00" d="M21.688,25l-0.777,4.854l1.036,5.334l0.232-7.03L21.688,25z"/><path fill="#763e1a" d="M4.063,11l3,13l8.33-2.795L21.063,16l-15-11L4.063,11z"/><polygon fill="#fb8c00" points="21.063,29.25 13.063,25 15.392,21.205 7.062,24 4,32 16.563,32 21.094,36 21.946,35.188"/><path fill="#cc6228" d="M16.563,28.5l4.5,1.5l0.625-5h-8.625L16.563,28.5z"/><path fill="#212121" d="M21.063,30l-4.5-1.5l3.125-1.5L21.063,30z"/><path fill="#e27625" d="M29.029,10l-2.528,6.796L42.029,5L29.029,10z"/><path fill="#e27625" d="M36.363,31.935L32.063,38l9.029,3l3-9L36.363,31.935z"/><path fill="#e27625" d="M26.813,15.25l-0.45,10.087L35.154,25l-2.092-4L26.813,15.25z"/><path fill="#e27625" d="M31.529,32l-4.498,4l5.031,2L31.529,32z"/><path fill="#d7ccc8" d="M27.031,36l0.186,4.875L32.063,38L27.031,36z"/><path fill="#cc6228" d="M36.404,32h-4.875l0.533,6L36.404,32z"/><polygon fill="#bcaaa4" points="27.404,40.447 27.404,39 20.688,39 20.688,40.447 16.063,38 21.063,42 27.029,42 32.063,38"/><path fill="#763e1a" d="M42.029,5L27.063,16l5.637,5.205L41.062,24l2.967-13L42.029,5z"/><polygon fill="#fb8c00" points="41.063,24 32.7,21.205 35.029,25 27.137,29.576 26.404,25 25.914,28.158 26.146,35.188 26.147,35.181 26.146,35.188 27.031,36 31.529,32 44.092,32"/><polygon fill="#fb8c00" points="19.063,10 21.063,16 21.729,25.337 21.93,28.173 21.946,35.188 24.045,35.188 24.045,35.143 24.047,35.188 26.146,35.188 26.162,28.173 26.363,25.337 27.063,16 29.063,10"/><polygon fill="#212121" points="27.063,36 26.123,35 21.969,35 21.063,36 20.688,39 27.404,39"/><path fill="#cc6228" d="M35.029,25h-8.625l0.625,5l4.5-1.5L35.029,25z"/><path fill="#212121" d="M28.438,27l3.092,1.5l-4.5,1.5L28.438,27z"/></svg>