<svg xmlns="http://www.w3.org/2000/svg"  viewBox="0 0 100 100" width="50px" height="50px"><path fill="#f1bc19" d="M77,12c-0.552,0-1,0.448-1,1s0.448,1,1,1s1-0.448,1-1S77.552,12,77,12z"/><path fill="#e4e4f9" d="M50,13c-20.435,0-37,16.565-37,37s16.565,37,37,37s37-16.565,37-37S70.435,13,50,13z"/><path fill="#f1bc19" d="M83,11c-2.209,0-4,1.791-4,4s1.791,4,4,4s4-1.791,4-4S85.209,11,83,11z"/><path fill="#8889b9" d="M87,22c-1.105,0-2,0.895-2,2s0.895,2,2,2s2-0.895,2-2S88.105,22,87,22z"/><path fill="#fbcd59" d="M81,74c-1.105,0-2,0.895-2,2s0.895,2,2,2s2-0.895,2-2S82.105,74,81,74z M15,59 c-2.209,0-4,1.791-4,4c0,2.209,1.791,4,4,4s4-1.791,4-4C19,60.791,17.209,59,15,59z"/><path fill="#8889b9" d="M25,85c-1.105,0-2,0.895-2,2s0.895,2,2,2s2-0.895,2-2S26.105,85,25,85z"/><path fill="#fff" d="M18.5,49c-1.381,0-2.5,1.119-2.5,2.5s1.119,2.5,2.5,2.5s2.5-1.119,2.5-2.5S19.881,49,18.5,49z M79.5,32c-0.828,0-1.5,0.672-1.5,1.5s0.672,1.5,1.5,1.5s1.5-0.672,1.5-1.5S80.328,32,79.5,32z"/><g><circle cx="59.5" cy="51.277" r="8.8" fill="#39c1d7"/><path fill="#a0d2a1" d="M42.189,76.092L42.189,76.092c-4.675,0-8.464-3.749-8.464-8.373l0,0 c0-4.624,3.79-8.373,8.464-8.373l8.508-0.044v8.373C50.698,72.3,46.864,76.092,42.189,76.092z"/><path fill="#ee3e54" d="M42.184,42.407c-4.678,0-8.47-3.792-8.47-8.47s3.792-8.47,8.47-8.47l8.514-0.044v16.939 L42.184,42.407z"/><path fill="#beace5" d="M42.184,59.346c-4.678,0-8.47-3.792-8.47-8.47s3.792-8.47,8.47-8.47l8.514-0.044v16.939 L42.184,59.346z"/><path fill="#f48e8f" d="M59.836,25.468l-8.426-0.044v16.939l8.426,0.044c4.678,0,8.47-3.792,8.47-8.47 C68.305,29.26,64.513,25.468,59.836,25.468z"/><circle cx="59.5" cy="51.277" r="8.8" fill="none" stroke="#472b29" stroke-miterlimit="10" stroke-width="1.4"/><path fill="none" stroke="#472b29" stroke-miterlimit="10" stroke-width="1.4" d="M42.189,76.092L42.189,76.092 c-4.675,0-8.464-3.749-8.464-8.373l0,0c0-4.624,3.79-8.373,8.464-8.373l8.508-0.044v8.373 C50.698,72.3,46.864,76.092,42.189,76.092z"/><path fill="none" stroke="#472b29" stroke-miterlimit="10" stroke-width="1.4" d="M42.184,42.407c-4.678,0-8.47-3.792-8.47-8.47 s3.792-8.47,8.47-8.47l8.514-0.044v16.939L42.184,42.407z"/><path fill="none" stroke="#472b29" stroke-miterlimit="10" stroke-width="1.4" d="M42.184,59.346c-4.678,0-8.47-3.792-8.47-8.47 s3.792-8.47,8.47-8.47l8.514-0.044v16.939L42.184,59.346z"/><path fill="none" stroke="#472b29" stroke-miterlimit="10" stroke-width="1.4" d="M51.41,25.424l8.426,0.044 c4.678,0,8.47,3.792,8.47,8.47s-3.792,8.47-8.47,8.47l-8.426-0.044"/><path fill="none" stroke="#472b29" stroke-linecap="round" stroke-linejoin="round" stroke-miterlimit="10" d="M38.141,36.278 c0.805,1.362,2.288,2.275,3.985,2.275"/><path fill="none" stroke="#472b29" stroke-linecap="round" stroke-linejoin="round" stroke-miterlimit="10" d="M37.799,32.287 c-0.193,0.51-0.299,1.062-0.299,1.64"/><path fill="none" stroke="#472b29" stroke-linecap="round" stroke-linejoin="round" stroke-miterlimit="10" d="M46.728,29.277 l-4.602,0.024c-1.306,0-2.485,0.541-3.326,1.411"/><path fill="none" stroke="#472b29" stroke-linecap="round" stroke-miterlimit="10" d="M40.5,63.429 c0.504-0.186,1.049-0.288,1.618-0.288"/><path fill="none" stroke="#472b29" stroke-linecap="round" stroke-miterlimit="10" d="M38.299,70.278 c-0.504-0.732-0.799-1.616-0.799-2.568c0-1.116,0.404-2.138,1.076-2.932"/><path fill="none" stroke="#472b29" stroke-linecap="round" stroke-miterlimit="10" d="M42.118,72.277 c-0.757,0-1.472-0.18-2.103-0.5"/><path fill="none" stroke="#472b29" stroke-linecap="round" stroke-miterlimit="10" d="M46.76,67.685 c0,1.449-0.69,2.749-1.761,3.593"/><path fill="none" stroke="#472b29" stroke-linecap="round" stroke-linejoin="round" stroke-miterlimit="10" d="M56.505,55.31 c-1.217-0.912-2.005-2.366-2.005-4.004"/><path fill="none" stroke="#472b29" stroke-linecap="round" stroke-linejoin="round" stroke-miterlimit="10" d="M64.11,49.367 c0.251,0.596,0.39,1.252,0.39,1.94c0,2.761-2.239,5-5,5"/><path fill="none" stroke="#472b29" stroke-linecap="round" stroke-linejoin="round" stroke-miterlimit="10" d="M59.5,46.306 c1.036,0,1.998,0.315,2.796,0.854"/></g></svg>