<svg width="58" height="52" viewBox="0 0 58 52" fill="none" xmlns="http://www.w3.org/2000/svg">
<g clip-path="url(#clip0_79_135)">
<path d="M19.2137 35.5195C20.985 35.5195 22.4161 36.9625 22.4161 38.7486C22.4161 40.5346 20.985 41.9776 19.2137 41.9776L3.20213 41.9776C1.43084 41.9776 -0.00019455 40.5346 -0.00019455 38.7486L-0.00019455 22.6033C-0.00019455 20.8173 1.43084 19.3743 3.20213 19.3743C4.97341 19.3743 6.40445 20.8173 6.40445 22.6033L6.40445 30.9484L23.3567 13.8647C24.6076 12.6034 26.6291 12.6034 27.88 13.8647L38.5177 24.4903L52.1746 10.6357C53.4255 9.37433 55.453 9.37433 56.7037 10.6357C57.9542 11.897 57.9542 13.9354 56.7037 15.1967L40.6893 31.3419C39.4384 32.6033 37.4169 32.6033 36.166 31.3419L25.6184 20.7164L10.9377 35.6103L19.2137 35.5195Z" fill="#A50E0E"/>
</g>
<defs>
<clipPath id="clip0_79_135">
<rect width="57.6418" height="51.6647" fill="white" transform="translate(57.6416 51.6647) rotate(180)"/>
</clipPath>
</defs>
</svg>
