<svg width="32" height="30" viewBox="0 0 32 30" fill="none" xmlns="http://www.w3.org/2000/svg">
<g clip-path="url(#clip0_79_418)">
<path d="M21.2257 9.49354C20.2804 9.49354 19.5168 8.67936 19.5168 7.67159C19.5168 6.66382 20.2804 5.84963 21.2257 5.84963H29.7702C30.7154 5.84963 31.4791 6.66382 31.4791 7.67159V16.7814C31.4791 17.7891 30.7154 18.6033 29.7702 18.6033C28.825 18.6033 28.0613 17.7891 28.0613 16.7814V12.0727L19.0148 21.712C18.3472 22.4237 17.2685 22.4237 16.6009 21.712L10.9241 15.7167L3.63618 23.534C2.96864 24.2457 1.88668 24.2457 1.21925 23.534C0.551918 22.8223 0.551918 21.6722 1.21925 20.9605L9.76529 11.8507C10.4328 11.139 11.5116 11.139 12.1791 11.8507L17.8078 17.8461L25.6421 9.4423L21.2257 9.49354Z" fill="#00A507"/>
</g>
<defs>
<clipPath id="clip0_79_418">
<rect width="30.7604" height="29.1513" fill="white" transform="translate(0.71875 0.383766)"/>
</clipPath>
</defs>
</svg>
