<svg width="72" height="70" viewBox="0 0 72 70" fill="none" xmlns="http://www.w3.org/2000/svg">
<path d="M54.8993 8.40002C54.5106 8.40002 54.1951 8.71362 54.1951 9.10002C54.1951 9.48642 54.5106 9.80002 54.8993 9.80002C55.2881 9.80002 55.6035 9.48642 55.6035 9.10002C55.6035 8.71362 55.2881 8.40002 54.8993 8.40002Z" fill="#F1BC19"/>
<path d="M35.8846 9.09998C21.4934 9.09998 9.82764 20.6955 9.82764 35C9.82764 49.3045 21.4934 60.9 35.8846 60.9C50.2758 60.9 61.9416 49.3045 61.9416 35C61.9416 20.6955 50.2758 9.09998 35.8846 9.09998Z" fill="#E4E4F9"/>
<path d="M59.1248 7.69995C57.5692 7.69995 56.3079 8.95365 56.3079 10.5C56.3079 12.0463 57.5692 13.3 59.1248 13.3C60.6805 13.3 61.9418 12.0463 61.9418 10.5C61.9418 8.95365 60.6805 7.69995 59.1248 7.69995Z" fill="#F1BC19"/>
<path d="M61.9417 15.4C61.1635 15.4 60.5332 16.0265 60.5332 16.8C60.5332 17.5735 61.1635 18.2 61.9417 18.2C62.7199 18.2 63.3502 17.5735 63.3502 16.8C63.3502 16.0265 62.7199 15.4 61.9417 15.4Z" fill="#8889B9"/>
<path d="M57.7162 51.8C56.938 51.8 56.3077 52.4265 56.3077 53.2C56.3077 53.9735 56.938 54.6 57.7162 54.6C58.4943 54.6 59.1246 53.9735 59.1246 53.2C59.1246 52.4265 58.4943 51.8 57.7162 51.8ZM11.2362 41.3C9.68049 41.3 8.41919 42.5537 8.41919 44.1C8.41919 45.6463 9.68049 46.9 11.2362 46.9C12.7918 46.9 14.0531 45.6463 14.0531 44.1C14.0531 42.5537 12.7918 41.3 11.2362 41.3Z" fill="#FBCD59"/>
<path d="M18.2786 59.5C17.5004 59.5 16.8701 60.1265 16.8701 60.9C16.8701 61.6735 17.5004 62.3 18.2786 62.3C19.0568 62.3 19.6871 61.6735 19.6871 60.9C19.6871 60.1265 19.0568 59.5 18.2786 59.5Z" fill="#8889B9"/>
<path d="M13.701 34.3C12.7285 34.3 11.9404 35.0833 11.9404 36.05C11.9404 37.0167 12.7285 37.8 13.701 37.8C14.6736 37.8 15.4616 37.0167 15.4616 36.05C15.4616 35.0833 14.6736 34.3 13.701 34.3ZM56.6598 22.4C56.0767 22.4 55.6035 22.8704 55.6035 23.45C55.6035 24.0296 56.0767 24.5 56.6598 24.5C57.2429 24.5 57.7162 24.0296 57.7162 23.45C57.7162 22.8704 57.2429 22.4 56.6598 22.4Z" fill="white"/>
<path d="M42.575 42.0539C45.9977 42.0539 48.7724 39.296 48.7724 35.8939C48.7724 32.4918 45.9977 29.7339 42.575 29.7339C39.1523 29.7339 36.3777 32.4918 36.3777 35.8939C36.3777 39.296 39.1523 42.0539 42.575 42.0539Z" fill="#39C1D7"/>
<path d="M30.384 53.2645C27.0917 53.2645 24.4233 50.6402 24.4233 47.4034C24.4233 44.1666 27.0924 41.5423 30.384 41.5423L36.3757 41.5115V47.3726C36.3764 50.6101 33.6764 53.2645 30.384 53.2645Z" fill="#A0D2A1"/>
<path d="M30.3805 29.6849C27.086 29.6849 24.4155 27.0305 24.4155 23.7559C24.4155 20.4813 27.086 17.8269 30.3805 17.8269L36.3764 17.7961V29.6534L30.3805 29.6849Z" fill="#EE3E54"/>
<path d="M30.3805 41.5422C27.086 41.5422 24.4155 38.8878 24.4155 35.6132C24.4155 32.3386 27.086 29.6842 30.3805 29.6842L36.3764 29.6534V41.5107L30.3805 41.5422Z" fill="#BEACE5"/>
<path d="M42.8116 17.8277L36.8777 17.7969V29.6542L42.8116 29.685C46.1061 29.685 48.7766 27.0306 48.7766 23.756C48.7759 20.4821 46.1054 17.8277 42.8116 17.8277Z" fill="#F48E8F"/>
<path d="M42.575 42.0539C45.9977 42.0539 48.7724 39.296 48.7724 35.8939C48.7724 32.4918 45.9977 29.7339 42.575 29.7339C39.1523 29.7339 36.3777 32.4918 36.3777 35.8939C36.3777 39.296 39.1523 42.0539 42.575 42.0539Z" stroke="#472B29" stroke-width="0.7" stroke-miterlimit="10"/>
<path d="M30.384 53.2645C27.0917 53.2645 24.4233 50.6402 24.4233 47.4034C24.4233 44.1666 27.0924 41.5423 30.384 41.5423L36.3757 41.5115V47.3726C36.3764 50.6101 33.6764 53.2645 30.384 53.2645Z" stroke="#472B29" stroke-width="0.7" stroke-miterlimit="10"/>
<path d="M30.3805 29.6849C27.086 29.6849 24.4155 27.0305 24.4155 23.7559C24.4155 20.4813 27.086 17.8269 30.3805 17.8269L36.3764 17.7961V29.6534L30.3805 29.6849Z" stroke="#472B29" stroke-width="0.7" stroke-miterlimit="10"/>
<path d="M30.3805 41.5422C27.086 41.5422 24.4155 38.8878 24.4155 35.6132C24.4155 32.3386 27.086 29.6842 30.3805 29.6842L36.3764 29.6534V41.5107L30.3805 41.5422Z" stroke="#472B29" stroke-width="0.7" stroke-miterlimit="10"/>
<path d="M36.8777 17.7969L42.8116 17.8277C46.1061 17.8277 48.7766 20.4821 48.7766 23.7567C48.7766 27.0313 46.1061 29.6857 42.8116 29.6857L36.8777 29.6549" stroke="#472B29" stroke-width="0.7" stroke-miterlimit="10"/>
<path d="M27.5332 25.3947C28.1001 26.3481 29.1445 26.9872 30.3396 26.9872" stroke="#472B29" stroke-width="0.5" stroke-miterlimit="10" stroke-linecap="round" stroke-linejoin="round"/>
<path d="M27.291 22.601C27.156 22.958 27.0818 23.3444 27.0818 23.749" stroke="#472B29" stroke-width="0.5" stroke-miterlimit="10" stroke-linecap="round" stroke-linejoin="round"/>
<path d="M33.5805 20.4939L30.3396 20.5107C29.4199 20.5107 28.5896 20.8894 27.9973 21.4984" stroke="#472B29" stroke-width="0.5" stroke-miterlimit="10" stroke-linecap="round" stroke-linejoin="round"/>
<path d="M29.1946 44.4003C29.5495 44.2701 29.9333 44.1987 30.334 44.1987" stroke="#472B29" stroke-width="0.5" stroke-miterlimit="10" stroke-linecap="round"/>
<path d="M27.6445 49.1946C27.2895 48.6822 27.0818 48.0634 27.0818 47.397C27.0818 46.6158 27.3663 45.9004 27.8396 45.3446" stroke="#472B29" stroke-width="0.5" stroke-miterlimit="10" stroke-linecap="round"/>
<path d="M30.334 50.5939C29.8009 50.5939 29.2974 50.4679 28.853 50.2439" stroke="#472B29" stroke-width="0.5" stroke-miterlimit="10" stroke-linecap="round"/>
<path d="M33.603 47.3795C33.603 48.3938 33.117 49.3038 32.3628 49.8946" stroke="#472B29" stroke-width="0.5" stroke-miterlimit="10" stroke-linecap="round"/>
<path d="M40.466 38.717C39.6089 38.0786 39.054 37.0608 39.054 35.9142" stroke="#472B29" stroke-width="0.5" stroke-miterlimit="10" stroke-linecap="round" stroke-linejoin="round"/>
<path d="M45.8218 34.5569C45.9985 34.9741 46.0964 35.4333 46.0964 35.9149C46.0964 37.8476 44.5196 39.4149 42.5752 39.4149" stroke="#472B29" stroke-width="0.5" stroke-miterlimit="10" stroke-linecap="round" stroke-linejoin="round"/>
<path d="M42.5752 32.4142C43.3048 32.4142 43.9823 32.6347 44.5443 33.012" stroke="#472B29" stroke-width="0.5" stroke-miterlimit="10" stroke-linecap="round" stroke-linejoin="round"/>
</svg>
