<svg width="15" height="15" viewBox="0 0 15 15" fill="none" xmlns="http://www.w3.org/2000/svg">
<path d="M13.4995 7.60177H7.39736V1.50029C7.39736 1.42522 7.33593 1.3638 7.26085 1.3638H6.81718C5.92178 1.36288 5.03503 1.53876 4.20778 1.88133C3.38053 2.2239 2.62907 2.72643 1.99652 3.36009C1.37373 3.98088 0.877622 4.71684 0.535818 5.527C0.180881 6.36817 0 7.26053 0 8.18189C0 9.10326 0.180881 9.99391 0.535818 10.8351C0.87881 11.6455 1.37026 12.3758 1.99652 13.002C2.62278 13.6282 3.35142 14.1196 4.16368 14.4625C5.00348 14.8188 5.90664 15.0016 6.81888 15C7.71427 15.0009 8.60103 14.825 9.42828 14.4825C10.2555 14.1399 11.007 13.6374 11.6395 13.0037C12.2658 12.3775 12.7572 11.649 13.1002 10.8368C13.4565 9.99709 13.6394 9.09404 13.6378 8.18189V7.73827C13.6361 7.6632 13.5746 7.60177 13.4995 7.60177ZM14.9995 6.65482L14.9551 6.17366C14.8101 4.60393 14.1139 3.12292 12.991 2.00534C11.8692 0.884625 10.391 0.191159 8.81199 0.0448802L8.32907 0.000518229C8.24887 -0.00630669 8.18061 0.0551176 8.18061 0.13531V6.68212C8.18061 6.75719 8.24204 6.81861 8.31713 6.81861L14.863 6.80155C14.9432 6.79985 15.0063 6.7333 14.9995 6.65482Z" fill="#ABA3A3"/>
</svg>
